<mxfile host="Electron" modified="2023-07-28T20:40:21.494Z" agent="Mozilla/5.0 (Macintosh; Intel Mac OS X 10_15_7) AppleWebKit/537.36 (KHTML, like Gecko) draw.io/21.5.0 Chrome/112.0.5615.204 Electron/24.5.1 Safari/537.36" etag="6BpJqvJFnHPCM93kw00V" version="21.5.0" type="device">
  <diagram name="Page-1" id="arwRolqCLAc05pGEKZO3">
    <mxGraphModel dx="3713" dy="3347" grid="1" gridSize="10" guides="1" tooltips="1" connect="1" arrows="1" fold="1" page="1" pageScale="1" pageWidth="850" pageHeight="1100" math="0" shadow="0">
      <root>
        <mxCell id="0" />
        <mxCell id="1" parent="0" />
        <mxCell id="g2oeOAWX-h5-nGp9rk8Z-131" value="" style="rounded=0;whiteSpace=wrap;html=1;fillColor=#e1d5e7;strokeColor=#9673a6;" vertex="1" parent="1">
          <mxGeometry x="360" y="-1020" width="1910" height="2110" as="geometry" />
        </mxCell>
        <mxCell id="g2oeOAWX-h5-nGp9rk8Z-1" value="" style="rounded=0;whiteSpace=wrap;html=1;fillColor=#FFFFFF;strokeColor=#36393d;" vertex="1" parent="1">
          <mxGeometry x="390" y="-230" width="1860" height="1280" as="geometry" />
        </mxCell>
        <mxCell id="g2oeOAWX-h5-nGp9rk8Z-2" value="" style="rounded=0;whiteSpace=wrap;html=1;fillColor=#FFF4C3;strokeColor=#666666;fontColor=#333333;" vertex="1" parent="1">
          <mxGeometry x="1570" y="130" width="590" height="755" as="geometry" />
        </mxCell>
        <mxCell id="g2oeOAWX-h5-nGp9rk8Z-3" value="" style="rounded=0;whiteSpace=wrap;html=1;fillColor=#FFF4C3;strokeColor=#666666;fontColor=#333333;" vertex="1" parent="1">
          <mxGeometry x="450" y="90" width="590" height="930" as="geometry" />
        </mxCell>
        <mxCell id="g2oeOAWX-h5-nGp9rk8Z-4" value="" style="rounded=1;whiteSpace=wrap;html=1;fillColor=#fad9d5;strokeColor=#ae4132;" vertex="1" parent="1">
          <mxGeometry x="560" y="290" width="340" height="230" as="geometry" />
        </mxCell>
        <mxCell id="g2oeOAWX-h5-nGp9rk8Z-5" value="" style="edgeStyle=orthogonalEdgeStyle;rounded=0;orthogonalLoop=1;jettySize=auto;html=1;strokeWidth=10;fillColor=#fad7ac;strokeColor=#b46504;" edge="1" parent="1" source="g2oeOAWX-h5-nGp9rk8Z-6" target="g2oeOAWX-h5-nGp9rk8Z-13">
          <mxGeometry relative="1" as="geometry" />
        </mxCell>
        <mxCell id="g2oeOAWX-h5-nGp9rk8Z-6" value="&lt;font style=&quot;font-size: 19px;&quot;&gt;Fetch data from API, hold in memory&lt;/font&gt;" style="rounded=1;whiteSpace=wrap;html=1;fillColor=#a20025;fontColor=#ffffff;strokeColor=#6F0000;" vertex="1" parent="1">
          <mxGeometry x="632.5" y="370" width="190" height="110" as="geometry" />
        </mxCell>
        <mxCell id="g2oeOAWX-h5-nGp9rk8Z-7" value="" style="whiteSpace=wrap;html=1;rounded=1;fillColor=#fad7ac;strokeColor=#b46504;" vertex="1" parent="1">
          <mxGeometry x="560" y="560" width="345" height="230" as="geometry" />
        </mxCell>
        <mxCell id="g2oeOAWX-h5-nGp9rk8Z-8" value="" style="edgeStyle=orthogonalEdgeStyle;rounded=0;orthogonalLoop=1;jettySize=auto;html=1;strokeWidth=11;fillColor=#fad7ac;strokeColor=#b46504;" edge="1" parent="1" source="g2oeOAWX-h5-nGp9rk8Z-9" target="g2oeOAWX-h5-nGp9rk8Z-14">
          <mxGeometry relative="1" as="geometry" />
        </mxCell>
        <mxCell id="g2oeOAWX-h5-nGp9rk8Z-9" value="&lt;font style=&quot;font-size: 20px;&quot;&gt;Data cleanup and wrangling with pandas&lt;/font&gt;" style="rounded=1;whiteSpace=wrap;html=1;fillColor=#f0a30a;fontColor=#000000;strokeColor=#BD7000;" vertex="1" parent="1">
          <mxGeometry x="635" y="620" width="190" height="110" as="geometry" />
        </mxCell>
        <mxCell id="g2oeOAWX-h5-nGp9rk8Z-10" value="" style="whiteSpace=wrap;html=1;rounded=1;fillColor=#b0e3e6;strokeColor=#0e8088;" vertex="1" parent="1">
          <mxGeometry x="540" y="810" width="360" height="190" as="geometry" />
        </mxCell>
        <mxCell id="g2oeOAWX-h5-nGp9rk8Z-11" value="&lt;font style=&quot;font-size: 20px;&quot;&gt;Initialize DuckDB instance and store clean data&lt;/font&gt;" style="rounded=1;whiteSpace=wrap;html=1;fillColor=#1ba1e2;fontColor=#ffffff;strokeColor=#006EAF;" vertex="1" parent="1">
          <mxGeometry x="630" y="860" width="190" height="100" as="geometry" />
        </mxCell>
        <mxCell id="g2oeOAWX-h5-nGp9rk8Z-12" value="&lt;font style=&quot;font-size: 21px;&quot; color=&quot;#6f0000&quot;&gt;&lt;b&gt;EXTRACT&lt;/b&gt;&lt;/font&gt;" style="text;html=1;strokeColor=none;fillColor=none;align=center;verticalAlign=middle;whiteSpace=wrap;rounded=0;" vertex="1" parent="1">
          <mxGeometry x="615" y="310" width="225" height="30" as="geometry" />
        </mxCell>
        <mxCell id="g2oeOAWX-h5-nGp9rk8Z-13" value="&lt;font color=&quot;#f0a30a&quot; style=&quot;font-size: 21px;&quot;&gt;&lt;b style=&quot;&quot;&gt;TRANSFORM&lt;/b&gt;&lt;/font&gt;" style="text;html=1;strokeColor=none;fillColor=none;align=center;verticalAlign=middle;whiteSpace=wrap;rounded=0;" vertex="1" parent="1">
          <mxGeometry x="615" y="570" width="225" height="30" as="geometry" />
        </mxCell>
        <mxCell id="g2oeOAWX-h5-nGp9rk8Z-14" value="&lt;font color=&quot;#1ba1e2&quot; style=&quot;font-size: 21px;&quot;&gt;&lt;b style=&quot;&quot;&gt;LOAD&lt;/b&gt;&lt;/font&gt;" style="text;html=1;strokeColor=none;fillColor=none;align=center;verticalAlign=middle;whiteSpace=wrap;rounded=0;" vertex="1" parent="1">
          <mxGeometry x="617.5" y="810" width="225" height="30" as="geometry" />
        </mxCell>
        <mxCell id="g2oeOAWX-h5-nGp9rk8Z-15" value="&lt;h1 style=&quot;font-size: 40px;&quot;&gt;&lt;font color=&quot;#000000&quot; style=&quot;font-size: 40px;&quot;&gt;ETL Component:&amp;nbsp;&lt;/font&gt;&lt;/h1&gt;&lt;h1 style=&quot;font-size: 40px;&quot;&gt;&lt;font color=&quot;#000000&quot; style=&quot;font-size: 40px;&quot;&gt;.Py script for raw data extraction and cleanup&lt;/font&gt;&lt;/h1&gt;" style="text;html=1;strokeColor=none;fillColor=none;spacing=5;spacingTop=-20;whiteSpace=wrap;overflow=hidden;rounded=0;align=center;" vertex="1" parent="1">
          <mxGeometry x="485" y="100" width="520" height="190" as="geometry" />
        </mxCell>
        <mxCell id="g2oeOAWX-h5-nGp9rk8Z-17" value="&lt;h1&gt;&lt;font color=&quot;#000000&quot; style=&quot;font-size: 40px;&quot;&gt;EDA Component: Jupyter notebook with JupySQL&lt;/font&gt;&lt;/h1&gt;" style="text;html=1;strokeColor=none;fillColor=none;spacing=5;spacingTop=-20;whiteSpace=wrap;overflow=hidden;rounded=0;align=center;" vertex="1" parent="1">
          <mxGeometry x="1655" y="150" width="420" height="150" as="geometry" />
        </mxCell>
        <mxCell id="g2oeOAWX-h5-nGp9rk8Z-18" value="" style="shape=singleArrow;whiteSpace=wrap;html=1;arrowWidth=0.4;arrowSize=0.4;rounded=0;" vertex="1" parent="1">
          <mxGeometry x="1040" y="525" width="130" height="60" as="geometry" />
        </mxCell>
        <mxCell id="g2oeOAWX-h5-nGp9rk8Z-19" value="" style="shape=singleArrow;whiteSpace=wrap;html=1;arrowWidth=0.4;arrowSize=0.4;rounded=0;" vertex="1" parent="1">
          <mxGeometry x="1440" y="500" width="130" height="60" as="geometry" />
        </mxCell>
        <mxCell id="g2oeOAWX-h5-nGp9rk8Z-20" value="" style="rounded=1;whiteSpace=wrap;html=1;fillColor=#d0cee2;strokeColor=#56517e;" vertex="1" parent="1">
          <mxGeometry x="1695" y="325" width="340" height="90" as="geometry" />
        </mxCell>
        <mxCell id="g2oeOAWX-h5-nGp9rk8Z-21" value="" style="edgeStyle=orthogonalEdgeStyle;rounded=0;orthogonalLoop=1;jettySize=auto;html=1;" edge="1" parent="1" source="g2oeOAWX-h5-nGp9rk8Z-22">
          <mxGeometry relative="1" as="geometry">
            <mxPoint x="1865" y="490" as="targetPoint" />
          </mxGeometry>
        </mxCell>
        <mxCell id="g2oeOAWX-h5-nGp9rk8Z-22" value="&lt;font color=&quot;#4c0099&quot; style=&quot;font-size: 21px;&quot;&gt;&lt;b style=&quot;&quot;&gt;Perform exploratory data analysis on all tables&lt;/b&gt;&lt;/font&gt;" style="text;html=1;strokeColor=none;fillColor=none;align=center;verticalAlign=middle;whiteSpace=wrap;rounded=0;" vertex="1" parent="1">
          <mxGeometry x="1752.5" y="335" width="225" height="70" as="geometry" />
        </mxCell>
        <mxCell id="g2oeOAWX-h5-nGp9rk8Z-23" value="" style="rounded=1;whiteSpace=wrap;html=1;fillColor=#d0cee2;strokeColor=#56517e;" vertex="1" parent="1">
          <mxGeometry x="1695" y="510" width="340" height="90" as="geometry" />
        </mxCell>
        <mxCell id="g2oeOAWX-h5-nGp9rk8Z-24" value="&lt;font color=&quot;#4c0099&quot;&gt;&lt;span style=&quot;font-size: 21px;&quot;&gt;&lt;b&gt;Craft queries for key insights&lt;/b&gt;&lt;/span&gt;&lt;/font&gt;" style="text;html=1;strokeColor=none;fillColor=none;align=center;verticalAlign=middle;whiteSpace=wrap;rounded=0;" vertex="1" parent="1">
          <mxGeometry x="1747.5" y="520" width="225" height="70" as="geometry" />
        </mxCell>
        <mxCell id="g2oeOAWX-h5-nGp9rk8Z-25" value="" style="edgeStyle=orthogonalEdgeStyle;rounded=0;orthogonalLoop=1;jettySize=auto;html=1;strokeWidth=10;fillColor=#fad7ac;strokeColor=#b46504;entryX=0.5;entryY=0;entryDx=0;entryDy=0;" edge="1" parent="1" target="g2oeOAWX-h5-nGp9rk8Z-23">
          <mxGeometry relative="1" as="geometry">
            <mxPoint x="1865" y="420" as="sourcePoint" />
            <mxPoint x="1864.69" y="480" as="targetPoint" />
          </mxGeometry>
        </mxCell>
        <mxCell id="g2oeOAWX-h5-nGp9rk8Z-26" value="" style="edgeStyle=orthogonalEdgeStyle;rounded=0;orthogonalLoop=1;jettySize=auto;html=1;" edge="1" parent="1">
          <mxGeometry relative="1" as="geometry">
            <mxPoint x="1865" y="615" as="sourcePoint" />
            <mxPoint x="1865" y="700" as="targetPoint" />
          </mxGeometry>
        </mxCell>
        <mxCell id="g2oeOAWX-h5-nGp9rk8Z-27" value="" style="rounded=1;whiteSpace=wrap;html=1;fillColor=#d0cee2;strokeColor=#56517e;" vertex="1" parent="1">
          <mxGeometry x="1695" y="700" width="340" height="90" as="geometry" />
        </mxCell>
        <mxCell id="g2oeOAWX-h5-nGp9rk8Z-28" value="&lt;font color=&quot;#4c0099&quot;&gt;&lt;span style=&quot;font-size: 21px;&quot;&gt;&lt;b&gt;Create tables with crafted queries for dashboard and store in DB&lt;/b&gt;&lt;/span&gt;&lt;/font&gt;" style="text;html=1;strokeColor=none;fillColor=none;align=center;verticalAlign=middle;whiteSpace=wrap;rounded=0;" vertex="1" parent="1">
          <mxGeometry x="1718.75" y="710" width="292.5" height="70" as="geometry" />
        </mxCell>
        <mxCell id="g2oeOAWX-h5-nGp9rk8Z-29" value="" style="edgeStyle=orthogonalEdgeStyle;rounded=0;orthogonalLoop=1;jettySize=auto;html=1;strokeWidth=10;fillColor=#fad7ac;strokeColor=#b46504;entryX=0.5;entryY=0;entryDx=0;entryDy=0;exitX=0.5;exitY=1;exitDx=0;exitDy=0;" edge="1" parent="1" source="g2oeOAWX-h5-nGp9rk8Z-23" target="g2oeOAWX-h5-nGp9rk8Z-27">
          <mxGeometry relative="1" as="geometry">
            <mxPoint x="1865" y="630" as="sourcePoint" />
            <mxPoint x="1864.69" y="670" as="targetPoint" />
          </mxGeometry>
        </mxCell>
        <mxCell id="g2oeOAWX-h5-nGp9rk8Z-31" value="" style="shape=filledEdge;curved=0;rounded=0;fixDash=1;endArrow=none;strokeWidth=24;edgeStyle=orthogonalEdgeStyle;html=1;strokeColor=#000000;" edge="1" parent="1">
          <mxGeometry width="60" height="40" relative="1" as="geometry">
            <mxPoint x="1305" y="890" as="sourcePoint" />
            <mxPoint x="1870" y="885" as="targetPoint" />
            <Array as="points">
              <mxPoint x="1305" y="911" />
              <mxPoint x="1871" y="911" />
              <mxPoint x="1871" y="885" />
            </Array>
          </mxGeometry>
        </mxCell>
        <mxCell id="g2oeOAWX-h5-nGp9rk8Z-32" value="" style="shape=image;aspect=fixed;image=data:image/jpeg,/9j/4AAQSkZJRgABAQAAAQABAAD/4gKgSUNDX1BST0ZJTEUAAQEAAAKQbGNtcwQwAABtbnRyUkdCIFhZWiAAAAAAAAAAAAAAAABhY3NwQVBQTAAAAAAAAAAAAAAAAAAAAAAAAAAAAAAAAAAA9tYAAQAAAADTLWxjbXMAAAAAAAAAAAAAAAAAAAAAAAAAAAAAAAAAAAAAAAAAAAAAAAAAAAAAAAAAAAAAAAtkZXNjAAABCAAAADhjcHJ0AAABQAAAAE53dHB0AAABkAAAABRjaGFkAAABpAAAACxyWFlaAAAB0AAAABRiWFlaAAAB5AAAABRnWFlaAAAB+AAAABRyVFJDAAACDAAAACBnVFJDAAACLAAAACBiVFJDAAACTAAAACBjaHJtAAACbAAAACRtbHVjAAAAAAAAAAEAAAAMZW5VUwAAABwAAAAcAHMAUgBHAEIAIABiAHUAaQBsAHQALQBpAG4AAG1sdWMAAAAAAAAAAQAAAAxlblVTAAAAMgAAABwATgBvACAAYwBvAHAAeQByAGkAZwBoAHQALAAgAHUAcwBlACAAZgByAGUAZQBsAHkAAAAAWFlaIAAAAAAAAPbWAAEAAAAA0y1zZjMyAAAAAAABDEoAAAXj///zKgAAB5sAAP2H///7ov///aMAAAPYAADAlFhZWiAAAAAAAABvlAAAOO4AAAOQWFlaIAAAAAAAACSdAAAPgwAAtr5YWVogAAAAAAAAYqUAALeQAAAY3nBhcmEAAAAAAAMAAAACZmYAAPKnAAANWQAAE9AAAApbcGFyYQAAAAAAAwAAAAJmZgAA8qcAAA1ZAAAT0AAACltwYXJhAAAAAAADAAAAAmZmAADypwAADVkAABPQAAAKW2Nocm0AAAAAAAMAAAAAo9cAAFR7AABMzQAAmZoAACZmAAAPXP/bAEMABQMEBAQDBQQEBAUFBQYHDAgHBwcHDwsLCQwRDxISEQ8RERMWHBcTFBoVEREYIRgaHR0fHx8TFyIkIh4kHB4fHv/bAEMBBQUFBwYHDggIDh4UERQeHh4eHh4eHh4eHh4eHh4eHh4eHh4eHh4eHh4eHh4eHh4eHh4eHh4eHh4eHh4eHh4eHv/CABEIAZABkAMBIgACEQEDEQH/xAAcAAEAAgIDAQAAAAAAAAAAAAAABgcEBQIDCAH/xAAaAQEAAwEBAQAAAAAAAAAAAAAAAQMEAgUG/9oADAMBAAIQAxAAAAG5QAAAAAAAAAAAAAAAAAAAAAAAAAAAAAAAAAAAAAAAAAAAAAAAAAAAAAAAAAAAEXrWE5gcZt/z9FZ8be+4L6pkMthmiu2M7zNZvrZLMY2T0AAAAAAAAAAAAAAAAAEVNnS+qs3z74JMpBx+a9KlrggO72VS4eJrVfaFJ+vlnHCV5mW2mbSz649zDfikLr9rH2CQAAAAAAAAAAAAAA4mjonJszztGR3nx/rOLD46jOu38S9rJaY8XV0U9alb+1ktHL1ed4m3uE8wPsm9VfR+f6GQ6Y/Q4AAAAAAAAAAAAAAEGnNDQ7LF0/P4r2s/Hjur47luhg0m9DPjRyythbXBVhfauqy19tYNvOh3uqitdloZNX7/ABXTjE1e0yWVn6J86Xl9x4e5GjgAAAAAAAAAAAdZ2KsgnM+jfMeTpuOpNHtzxx6MzaRLNy2WnnV7u/E1SdrM/LZ2Djo+YsxltHqNHHbo8fTezl+8OzL9Gjrs+pui6v1G8172+q92g3/cAAAAAAAAAAKotfzfD7Mq344ttufKknuO6QG7z24Wd21zvzybSQ/M0cZ+sufac1efej0R08zQeyvD71FRbXBinVttZNUzyqe3pmsaw3a/j115PVg6KCdmynJ9K+Wr+3YZeO+QAAAAAAAAHm70jTUTpunF2OL29X0bDA6yXDs8yE5+YJH91pdcTWMaXa257Ym0Ql+O8+fXAQoCOyeMapsSMx+QTFiTylLuy2VjXVu1L02+W5R6OhuuivTOvxswWUgAAAAAAAANVtR5dkFrUVTqkGHx51233ptyororGvfSd207vLJ3889FXXPWt2WmuBdXs/QFD+ka+q7rr0To6NVIdtsbLm2H2Gc1RWnrfp21ItHjzPqzZW519mjzwkAAAAAAAAAA12xFNRL0l5x4m/Rh0gMnG7rOcp8+bM8Dru6awLZ2HVzPuBl4ee0M9oEHrad7jVTlTUvrAAAAAAAAAAAAAUPfFeQ3m2rmxsOkOZAq2M3xQ+mmN48+31l0A3cYvKKO7dmS8IDFKauijvRO7MHcAAAAAAAAAAAAANTthQF3UFfuO8KuwGt2QqHquNagk7K4CJAQac073zILTjsi25wkAAAAAAAAAAAAAB51vijbszW94z2gAAAAAKCvuhrq/RPM10gAAAAAAAAAAAAAAUNbFQW9mu2Iz2AAAAAAaapJ3Eu4vcbswAAAAAAAAAAAAB80hvEC0MIBe1H3Pg17wRAAAAADHyNLx3E4/Kq06emECkHo4t6+fZAAAAAAAAAAOPX57haMAgSGZhcvg+CbCn8WkXi+nKxrygAAAAIpKYVnv40rc9P28Y/x99LFlzGCfEX1OPJsol6NY2TIAAAAAAACJedvRFFQ1zt6RsceQU6uvoy1WrTW5VX3nP6MU7sJqtJXffEz1DO2JlyKCVonwJehONMTOJaSNUX4fR0bjVHDB2PyLov9ztfp87lx7Mnri+pfEZcBIAAAAAACI1Ra9UTEvhs2jtnEU2es7sHqZpjcW8o5v9fdjwUz6L8sTSbrlHvm/wCETo28Gjb/AJojqS98on8mmoieWXiccnpZvz7hR386e3nfhkkfkcc05Lml0Rl1VgSAAAAAAAiNUWvVExM8bJX11P1z2BZb5Bqevop09kq10+05OQvqAAAAAafcdUKu699HMumRaTljV3dsowZDpyI5I453xc0uiMupsCQAAAAAAERqi16oRMxorcOY1uRlIBIAAAAcTkxMEztbxRDr7BhZHaiQmEckcc56uaXRGXU2BIAAAAAADTedfUcRhXGXH9TZxOucWz++d5y1n2Y2n3VDbNSNt81Q2nDXDO68UdvUAAAB8xTLaTWcdSiJ7a3OO9pvSJAAAAAAAAAajbit4veCHnDXeoB5eyPRermKO7rb18q37Z7gIiaUCLpQlF+Mq7IQzjYncmrum588oL56Sz4nzhvrxQraYbkBIAAAAAAAAAAAAAAAAAAAAAAAAAAAAAAAAAAAAAAAAAAAAAAAAAAAAAAD/8QAMRAAAQQCAAQDBwQCAwAAAAAABAECAwUABhESFEAQEyAVFiEwMTU2IiMkUCVwBzM0/9oACAEBAAEFAv8Ab1zsYgD5ttsn47Y7l2e8F03I9ot2KFuD+YMmAuD+ps72uAWw2wyZtLAOVYQhAQYiomc+SRwSZsNfWxhVFqXWPrtuFkweeIiL+lsrAWvgt9hNsHga+RLkVWEMy1h6OxDmQgXx20jnLpa+HojdegfnCzpiKPZoC/6TYLiGrgYw+8Pra0YBuL9Noj/a1WXnrPEhetuR/CRjJGW9Gsea1sTxca5HN/oLqxirAhYC7uyGghEg8F+CX7eas053x8CH+VBQt5rSD0bBU+YmnXSxSd+q8EvTZbi2rhIwBPBVRMkfxyzajq/UV/yPhbO5azWU/novBWvRfRslf00+qWXtCu77czukqdQE/VjntTHSrj3o1J7cKLC7tkkVcZIDP7xm57xm4XeFEj1ZvRSRXorsHLGIxr3JjZUxFRcNHaULrZTq2877eSVmuAGoKBLLwbLaAx5Lej8v860nG1x65FQ17Miqq+POhCzoQsWvBXHUtauTa4OqG0xoqV9zJE2O6CdkBY82NlXNnhRljSk9ZVd6XMyW6LvJXYnnmSw0Mq4yiGRAh4RR/knUwUkktAzDaycVBbMyDLQ+I4fQ5VfT9y9zWNtdtjY6W3uTHefdpkEMpEqUheOpTETksQshujGYNsUaZFe1z0YeE/Gua70SEDx5LbV0ay7EG3CNgmerj7El0VWdNnsMvC6wodgch7E6m7iwDarCBai1Fs4u23ywcxKqAHy4igkRF4oiJx8IBpJcWqAfhWu1K47VYnq/VbBMXXrfJKm2hzorLI6W1myHWbR+Q6nOuD6zWpkdDVR46uY1skb418ERESWeGLC/ZROCkSVdnBK2aDtdmkWe/wCjlTFFkyKYkR1VZNL8AxeOWNhACw24LnzzmOdBLJDJVldYH4eVFx8L4+QgpzmtwQ+aFa28bIrmtkaWOsKzSMhiOtp53NgldnSPyaF8WafIsmv9rssfkbBj2Y9EVtD9zAg8x1iU0MSaV80pT1WTVQKkseFWpLqTl6b0vXgj3K5xYFPHrULuePWj3Kr2o9uxxrFXgonFjebEREy0X46cxWa/2u/Bq0gCTngydM1/42kLEjj25zuXCmK2TA2KiarGrQfSRErHvarXJkLeSOuVUsM3Fn+Ir8ROCY/nLNDhaML2toHGeDLHPXHRPbIx6cWamnG+y2CQ4UiCUeRfjiRR8a4GY2UeFsMO22hkRz3Oe7BLAwRayZxdfsFY+R7mtdjWMb4UFXJ5ubZ9gq0+OHk/DR6pUd2+wU0VpARCXWEwlxyZqf3/AMJoo5mvpa9yx09exYo2oiJwzc6l5LPCmrZrMyCNkMMjcJAEJX2JX4MAIOvhtv2GvkZGhBjn5rmuSEqxqNb3BwYxsNnqMrF1ziy+9MX08L3Xgyk1mojtZAhRw4fBfr6N1cqU1PSmWiVGuBAL3jv4W0emN3DOKZxyzIhHD0QiCKZFzimOdw9W9yogOiRuZSd7vIyw3FOT1dZ6bOpt4rKa9ukdPNNO/BbeyGSJ+wXMNIHIBX+ncSfPtqYbo6vvd7G82p0WfmD9W0huFtaeljlgmo697LAV4ZWvBqFVekqZo42uQOsdg763g6mr0qby7j1WIUB48lRd17kj2afKagQab1boR5VT/wAfjcBu/BTotm7DeZuY/W4Ono+/2T+LsvYXiqZsTURre/3RvLsA7vMg+cqoiU383Z/6Devvlb9u+dazeXBpreOw/wBBu0nPf1n27511JzRaGnG7/oLyZS7mtXiN80l/lwnfELQ14XXekW9ZBk+11UeE7inLQReafVL860f+l6czKE5tdZQbZVyYPcVk/cKvBLHZ64XDNrspVJLKJ9Gtw8glYv7/AM093MTjk5XeAxRIyh7VZQrXbRXE41Uc3sppGRRX12TZSeqrdC4IFf5XzFXgjl5nPc1jSnNcT6aO6JrJR5WTwdjtyqmvegcfiiNamSwMegs8oRNdM2ZfmGO5RstznFzQjIicreE47VT6ejT+K672O4fjgQchbZopYXYMznl8S2cW19kSFke1mo73uxm1icE2qvxuy1a57x1We8NTnvDU57xVOLsdVj9nrEz3rAw/Z4JYy7l0w4TOK+JbPCNj5FIHfA3Tvx3sdw/HNa+r2Ne27DHggAT9Hi749gKnCDxnTjFWRRyyta1qXWad+O9juH45rX1zYG8QAF/Q8hrZMnlSJGvRzAIOpKWkbi0j8WlJz2MXnsgzPZJmeyTc9km57IMz2MXiUpOJSPxKNMtQmh4KvGCMhr5MnnSN0y/s0yfuZdZp3472O4fjmtfXCYkngbzDESqjp+OHYsnAfXR+Dfm246kBiS8iif8Ao44X/wB08nMldD5Q+XWad+O9juH45rX18LSvQrJYpYJOpdkkjpMrquSVzURrfmyPRiWAfmPTmik6l2OV0rwgeC+F1mnfjvY7h+Oa19fF7WvRQRFyIeCL58kyNxyq5cexj06UfGMYz0XWad+O9juH45rX17FVRMdO1MfK53yrrNO/HexuhOuqxpXhzwzpI3zZM89+dQudRnUNzqGZ57M86PPOjzzo889mdQzOoTFIXFnfiyPX5ksjImlzOLmohHBVPZXdELZ4fRWgDoj52ZHYxLjCYH9s8mBmSWMSZLYTOwCjtLB1HQi1q9qZWAGYVqIL8J1A5iy0lyPkjrAdW2BCY2ykz2niWUWe0YMQ8bOuGzrhc64bOuFzrhcU8bFsYMWyhz2njrKTHWBC4xx5CxUlyRg2onvwXUAmYFV14feyhiTZLSVMmO1mnXHajWKrtPr+D9Njz3Mz3Mz3Mz3Mz3MxmmsxungcG6jWIrdZp0yKkqY0iDEh/wBtf//EACwRAAEEAQMDAwMEAwAAAAAAAAEAAgMREgQhMRATMCAiQDJBURQjQlAzUmH/2gAIAQMBAT8B/vYoDJuv0f8A1P0paLVfEigdIo9OxiYO3MW9NUfbj+UYWVVKbSlu7fhQQ9wpopAKbacHpLvK0Jw6aqD+Q+AFBHgxGWNvJX6mR/8AjCdFK824rsy/7LsS3la70zPqFpuojcOViHDZSMwcR5qtBpBTu676kx0I+pqbNHwCg4HpYRmYPunvg/Fqn3bBSkzc73cotI8gTM2DZqZMCaPKc4NCJL12WnhYINCxQhFWUAW7tTJctipJGs5Re938U8EHfxhMIc21Ps9qJzctReOygvLZP566m9lprtSCigcpAgFO7J58mn1GGx4WpeHUR0Ev5RkAGyc8no1xCZLY3XcA4TjaioSC1Pqb9rfMOr+PRH1fz8AcdXtpN0j3NtBm9H0E38BnHo3HBQFdXcfBj8EnwY/BOKA+DGz9sn1sFlav7fBA/br1wDdav7eeCK9yi0HZB3aJaeFmFkFkFkFkFkFHM1oUbc/c5OYCE9uJrxnhBRuDWBE1upyNlYVhbLZWFYVhNcA0Jzg0brUJvPiPHRr9qT5Q5tJ778DZLpSyhwpSPyTefEePO3nx4qj5MSgK81BYhYhYhYhYhYhUP7z/xAAvEQABAwIFAgUDBAMAAAAAAAABAAIDBBEQEiEwMQUTIDJAQVEUIiMVMzRQQlNh/9oACAECAQE/Af72qr2U5sV+tt+FB1Vkrg2yv6Srr46ca8qo6jNMebBVZ79GyX3GHSGAyF59gvr5hIXtcqPqzZftk0KHoeoVgp2f9UkhkNzhTfdQPb8YUH20krselV5d+J/oCq6Y1ExsmUNQ/hq+gp4P5D9fhNrqOFhYxui+to/9ab1GkyFmSwKFNQz6RusVL02eM2AurPhdfgqml7sYf87xNk5zXDlRtp4haOwU0VY7WN6moqq93NunRPbyFYoRuPATKKd3DSoIK8cvsvxluWUgqBscbbM4QcDuFSQiQ3LlLTOYLjhNaXHRRxZeFdwXcKLj8Bdwq7inszcqSHLqFFC6ThNpQ3/JN42yjoUf2yomZQo+VJwjjEpU4KBuVhwjFhuPjugLA3wzK5KbEByrJ0YcjdhWbBvkTI/c7zhpjEbO8E5xh8u+U4WOMUl9Cs4T35Qib4tFh6CYa+DulFxPOMYu70M+xDz6GfYpXXJPoZ5PyBvjebNuqE8+he497Xx1B0sqH333uV1LD3bOHK7Tl23LI74WUrI5ZHfCkp3vdwtGDKECQmm422+ZOGicCThEFlcspVirFWKylFpRGqAuoU/jab5sHMsU1hBUbLa+M6pzLJjSCo2WT+NpvmxttWwfxtiT5WYbheEXX3rlZis5WcrOVnKzFZitVb+6/8QASRAAAQMBAwYHDQUHBAMBAAAAAQACAxEEEiETIjFBUXEQMkBhgYLRICMwM0JScpGSobGywRQ0UGLhBSQ1U5Oj8ENjg6IVcPFz/9oACAEBAAY/Av8A28YY2m0TDSAaBvSsxlnj3NqV97pujb2L72/pYOxZ0scnpRj6Klssgu+dEfoUJ7PIJGHWPwotklvyeZHiU5lmibZ2kUrWrkyK0vLWn/sdi73ZYhz3cVg2i0KkkEbt7ap9oa3ISDi3fKOyic6zFpDuMxwwKDbZE6A+c3OahJBI2Rh1tNfwbK2mS75rdbtyyNnvQwnAMZxnb0H2p2Qbs8pVjhBcPKdiUclmjjs5lHOPLbXuGWYHCMVO8pgmiY8vz3VCvWVxid5pxCvtc+E+cOK5CG2XbPNqPku7PwTU+0O4kf1PMi9zr7vKceKwLvYvy65Dp4YZdhuq5/LeR9e4dnVbJNQHmr2I8BZI0OadIKM1jq5muPWNybZLa4ug0NfrZ+iDmkEHQR+Aunfi7QxvnFOe9xJcayP80IQQNutHv7iQ+aQferSz0T8eGSTzGkqPmqfcj3DrXZm5+l7Rr5039nWl3e3HvTvNOz8AqVSGrmA3IW/XpTYGYu0vdtPDiqDQpwf5ZKkH+0fiOG0n/bITzsj+oVQtncfaIhSKQ+yVSQ1nhzX8+w8vMTDSS0Zg3a/850+2vHFzGb9fDhgrz3ADaSuOZD+QKSJlndR7S2pcjNEGElt3OXirP7J7V4qz+ye1PgfHCGvGNAe1PfkspeFONRC+yRh9YXeZmuOzXwYrBSQP0OHqTWyZrXHJS/5v5fkK5sDAOk49nqUMA0tbjv1q9I8NbzqmXDj+UVRycUhOqqoL0p2DQ1VtFoDeZgqs5j5fSd2LNssfWx+K+6Qf0wvukH9ML7pB7AX3enXK71PIw/mxWUAyjRrZqVy03pRqOtYl7N7V3mdjjsBxWOKyrdEra9Ks9orUuZnb9fLpZ5OIZy47qqlmbkx5xxKxkvu/O/tXfZ2t9EVWdJK4oRQNo3Tv8EZKPYXabpwXe7Q4ek1XnOjI9OnxWEl9vmvxUeYWSsd0UT2F1cnMQBsFB+vKi5xAaMSTqRj/AGfFlT/Mfo9SwtM+6LD4KuW/aHtPWTiYXOXHhHSVUGJ3MCtE0YGzirPuSbwqTWdwH5TVYyuj5nNKwtUOP5ws1wPT3HfJ4mek4BUdamdXO+COTZK87qBd7gY3eaq62SQ80Y7FeLLtdbyuPD6z2K+5oc0aS06E4WN9paPKyRP0V/L28U2ucqWgMtLOfNcr1ndRw4zHaRyeP9nxml8X5N2oLLWuaOupl74oNjnhaNlQFUKtNPDXit2rvtnZIdrgvLg3SdqJs/7Qzedlfqjdlszusexfda/8je1Z1nlaOZy8XL7Sq2yuO9wWc2KL0n9i7/a4mei292IZS2Pkdro4BYWUHncSVSE3RsoqPbThoBQLvkrGb3I5SWK95wOKE0EgfcOlpweEyZmLXtDhya1H89z1YLGi0tVWPcz4LJvFyUeo8GUlG4LPznnisCPfMizY3D3rGSpQkieWuGsJk2AdocOfhrk2erhfA1xETDSm0rONF+72hw5q/RCO1gMPnjQqOFQVUYsTpJDRrdKuw1ij5tJVThvWkIXqYqz18mrffya1Cte+X/XjwYIghR7j8FfdxQnTHE6GjaU6WRxc52kq7qCndb3tyjTg0vu3W7VJEx99jTmO2hTM1B9e6LiqlMtUUw+1XWm9lMS7WKIOX2KU1/ln6ItcKgqdh5viE48LAoK+VePv5NDbmjNeMm7DXq/zmQGtuHBVRjbX4IMGpWduolx+HBe1HgLzr0J0hHHfh3UkL9IJaVQrBBqs5GnKN+PA+TZQH1p3QqcDY4sS9wYxRWduiNgbyaSyyYB4wOw7U+GVtHsNHDarzTgioK/m+B4MnWjxiw86yczCx3OsVW4FdYKM8p+oJsMTaNaKBGxQyOhawCpbpPSi57i5x1k8AyFokaB5NcPUobSWUMjalfarO28fLaPis4VWa0Dgba7Q26G8Rp07+C0dX5gnndwGJnWK/wDJzCmqEfE8o1MtDBmP+h5kYpmGN+w6CqOzHc6s/W+U8N2WNrxsIVciW7nFVyF70jVBjQGtGocAt9nbekjFHtGsbeEQxijB4x/mhMhjFGMaGt3KoVZYGk7dBXi3e0qxQNB26Tw2jq/MFIXupoV2PNHvTbVbmFkGlrDpf+iDWgADQBynJWqFsjefUi/9nzZRvmSYH1qzA4EPI93gX2iKtnl0m6MD0KXKyuYyKlQ0YmtexCGzRCNg2eAoPKlAKLoLjY2mhe4oSP8A3iYeU8YDcOWmuDY7V7r3dU4ZJJ5GsbdIxVpikkax8t24Dr09vgbPDrdJe9Q/VFx0STOcPcPpy7L0N2dgNecYdigtGtzM7fr7qS3WCdzzI6uD6OHNuTopLW5pBoRcbh7lfnlfK7a91eCkVslpoo7OA9autle+Gt1xqGDpppTLPJLlHDHmHMO6yTTVsLbvTrVns9KFrM7fr5c2cDOhfp5jh2Kezn/TfeHT/wDO7kfTvcxvtPxTbRaqm9i1g2KjYzGdrXJ0D8dh2hRRPFJDnP3nupJ3aI2lyY6XOF4zSf5vpy+0wUqXRmm/Usn/ADYyPr3ZgnbUaiNIX7jKZYuY/Qq5ckb7LULVbZMvPpGwHbz93kRpmeB0DHsU9rIxe64Nw/z3fgDIx5FpyfvpyGGDVGyvSf8A4rKzWWXz04/gFodH5Mgk6aA8hmYzEulEY+CDQKAaPwCY+c1p9yjf5zQfD1OhQvGF6fK+rO/Af+Jv1Vm//Jvw8PTbidygPmhx/wCp/AZG+YxrfdX6qz80YHu8PaXDVG6nqTuaE/EfgNqlGdWQhtNgwCpsNPDOdzKcf7bvgnc8J+I5d3y2w7g6p9yzMtL6LO1ObZ7EdGDnP0dCvHEMaSnjwzWbcUW7RRMtT2l7QCCAs/LxekzsXe7dD1nXfjyipRbETaX/AO3xfWu8ZOzt5hU+9fvFoll9J1e4dKf9R3uCI/L4Y82HAWnUeGtntEsVdNx1F37J2hv5hQ+5BsxNmf8An4vrQc01B0Hkb5ZDRjBeceZOYCY7N5Me3f3cYgcCGih3pvhaouOtFz3BrRpJUrmcUvJHdAVMln8qM/RMmiNWPF5p5FaqGnF+Ydzef6lg0LRQ8yvN6RtChmjOa4jwr/VwZOMnJNOH5udVfidipQKrMD3Nmr+b5jyK1dX5wpDGReZTA61dlYWnn4MdA7iusICK6QDeo4Lvlns7m7G1C/h/979Fn2acbqFeKtPsjtXGlHUXj3f0yvvJ/pu7F95P9N3YvvJ/puXjnnqFYZZ25i8TafZHarsVmk0+UaJ8TYbhcKVvVRedWjuL/r4KMaXFMvkVdqVm63zHkVq6vzhT9X6q69ocNhCEsTLri6mlOPPyRvcOThI2tBVUaABzKLpVm63zHkVq6vzhT9X68FfNeCnDnVynTwbaq/qTYiSAdJCwtB9lYTt9lYSRe9caL1ryPaXEb7S4jfaXEb7S8j2lpi9axki96xnb7KxtB9lR3HOderWqargHTwXaVRKe7m4IulWbrfMeRWrq/OFP1frwPiPlBFrxQjBwRI0E8DUGDTrTrS7Xmt8MQ3jtzgrrtBTeDoQaNAWPGdieCLpVm63zHkVq6vzhT9X68N9lGy/FXZGFp51oCFQg+cFkezWUGtFANHhqlGaECp0tWihG1cULRU8yEk3Q3hi6VZut8x5Faur84U/V+vcUc0OGwr7uz1KscTGnmHh6NxKqeDPaHbwvFNWY0N3DuIulWbrfMeRWrq/OFP1fryLE0WGK5vBRdKs3W+Y8inso4z25u8YhObIwjU9usKsUmG9cZalxVxVoK1rWtK0rSta1rirBq1BcY+Eq9wCa2Nh2NGsqCzP47W52848jynip/wCY3Xv2q/knSMH+pFj+qo6j96z2ub71hK3pw5NjK34rMa53uWbRm5X8k5jD/qS4LK+OtHnkaN3Jj9ossbyfKpQ+tE2eeWE8+cEchPBK3VWrSVX7HL/xm98FSUTx+m3tWJad4WMbSvE/9lix60P9S4xHQvGe4rxnuK8Z7ivGe4rxnuK45PQtD/UsGPXif+yzY2hYXRuCpEJpD+RvYq/Y5f8AkN34ppmmgiadPlEIG0TyzHmzQh9nskbSPKpU+vlvfbLC/wBJgKzrDCPRF34LCzFu6RywktTdzx2LNtFqB5yOxZlvcN8dfqv4l/Y/VfxL+x+q/iX9j9V/Ev7H6r+Jf2f1Wfb3HdFT6rOtFpJ5iB9FjLanb3jsWNmc7fI5Zthi62d8V3qywM9GMD/21//EACsQAQABAgMHBAMBAQEAAAAAAAERACExQVFhcYGRocHwEECx0SAwUOHxcP/aAAgBAQABPyH/ANef48T60dWw6UUhuSnUY6UvbcUBdxb380MOwAdlQjqbwk+TmVhqz+BMn+VAH8bVvyOLWMmsj2jYOXGp69oHUZTQgMFiF5m9HwY2W9AGE7L5VZKgBtyDl1wrMYmWk5XpHNzziMTrWBFyI/jWljgXbQU2kWQ5o+DXOiZBvbL4ZceVWyWcW7HCKdyZhzxgjUChAwycz8MkLvllHOgnFxLHDp3ot1KX7TrVyVsXew7mlDptL82Lfz/iZOXG/wCHy+H1bF5A2bD/AGsTqW/RoeX9DKNanDnriT2aZm3A3P8Ap/A5biqbIoLr0w2vuRo8uIxO4Ou+kMebvsXX4dKKC0okTX+DGW/nctakFk5bwsFEexTmtXV9VIuVG5iFyHer4cgPG71sjNl3E07YsW5vunc/gcHDs1t+d+LJmEzifFy277e/BkALq1GaC5xJ/wBOWlc9kGd6kyoqHQwHDkie1RZB9QBj/cR3qbUFDZxWfy0fwIMeAeMP3TlZifEd35H37SCMS5n8rUBOPwV3K3F9M1ndScBRqdYwgqWAzKTq2rDZKZJIwh+aWCyBUiTRNPVEigpQU6g3g2A6NRB9iwB36VzgyORvWAttGkYYoCUNZXSHVk8Gl1kScpYnhB5+/hJWjNsY8kUPKc3tO/UtCwBiqApxQGTdWFCsTwQJ51MUmyWu0UYao+Yfqi25a5HRUlKna71B+Z0rz/tQCN7QqGcZzLPWuDqA9qTBvnH3jGnQ5Hw7HWn/AC7ZNMEhw+CxoljTK3OFZ7PGpSg0tm3UPvnTdcNnyptLvV4YHWiUy0TOUvigZ2Wn1oZuggfFZ8iZq1dv6h4vkEciUiXSCTqRWJHYQLlDpUCOGwfZU5YaTKRe+8K3xYQJ8vugH1UIBq0GANY4cT0qHvcY2PnWsmYzolod0030sl2B+qnaQzMvMqQwulWvRarJD3b0ijNsh9DFSFjaXSSghfkEHlQ0huZL1UMWKVhDxJqRA7D8DUQHYWJ1npTN3zfWpgRwiPdTmrrN5Y+hxPnOL7UxUMgI76QJDumD1oZmhDkJbmUkZo995tPbp3vEzlHMF4FDCjb+Dc7Vk1ICcqCQEcygIAcTGPrG8Q7UYzPG8q7mr5Wp0mQDrB8UGoDAhWg2w2igHvQCdGvFfdcYSP5a+Ry7qOXRZvlRAFsBbwu9aIvXhVioUgwdnSp+NGj6xJBkFdA6KUYLy5zZ8a68uwR3nLhTbyx2JJ7YHEJEbp204gaBgnGt10TK4YNWMimDB1Pr0MFhiverxQtQ/RTXFfBtxUuQJmtYPLkoIdFlkMfvj66xax9WBOicLFaNkd6iNly2PFanDOxjd5l5hUVla6dMHSjCmlU2aRb5T9VZS7N0LhPxqdWsEVJGW62DjpHtkuR8E76IScmhb2ulSkiMGvI6qKFl8NWiHg3gwKaEUpTKWzqwdTA5tk3ndG2lELiEXbNIygHE/wA/K6xglpE8rVs1ESVGLgiXKSKdbFxq2WiWyjH6VBQEJWUJa6lTFBJEOlItlGQFHqyWoxwqHZOPbERuUyZU6yTUWXPbsvSETmUEa6AHFWC4KAeZhvLPl9HENvt9DAjBuUrgm3gI+Z/LI6Q2WpEcJQVAStKtiY1MromJst6SiLrdI+caEpM/tRAPQjEYNVYOtKbJliJgifbaAIM6XNWwYFBqbHEaETl0qIbKEu05ekwAfNy0OxpqOZZt2tAEARyaDBLR9ZNwsd3ZVqQRSuimQ6TuG7bWP3yUvo1usl3tVDekAtOcbKePU1zsVbB3isdDX0nDdI7nUZet02m+3oEnK27FST2LM5t8ocdnuJkOxm+Dd0QpzaDqOZR0nQc6cbX129s6qCPAs6J3hqjlhWUjAgKAQEU4KBa+m2nxu9WlIGC336FQuCEzAIKFMymjvifkKvT1dBj/AAdji+qApxah9Dg240Yg6+b6rSNAt/p8utBReAQBp7lRjGZlqOJQQNahwwwOeMcat4QeY/I37/VZoK8mezq3Rxp6t7TejhwNXWkRmdVzfUwzb+IJCNxIXtWENXYOMQXzorm+Lw1yeM+9im4cfLD8pCsGtpSTbTu0CWLDY1avhy2Lbw22WrLa2lAPyTIzy7GH40QvIGPkXviIwIrYw5C41JTJpRFtuofyYxjByZlLCLHDClUGjSizcpZRsTHGkvpDOJBIGwlFOrERgtyxC+F6nLFSZnQ/LC4Frnv8g4VKsGht36l98QZDXRfdempdMhI5HDmuf5zsStscHP5KcUjIRvLTLL9j8zS1TLkY2DV7MS0yOBBw/LGNoawTQ6QI7meqHH38RQKdyeqKkE2D3n0H882k2S6jSkxURkb7c7poBgc1OrajyCwXduN18dfziELRzxDzOahtcHTAJY3qfwCKJmlsn3+xchxPefQo4ux3n+38AZoC3vktHsJKxHtI+ZRwhQDI/geL0TtX/VVP3s0gErQbsPzHs/g4Xlenk9P7wedw7hTlYJcjv/BADOKEISc22Q/euECcCoUOZOR/BUknAY9oCoXVd3f91x7lm+ggYodVALR+9FAloFjpZhXCTTEb/EdRTAFUBktYD81bWQZzW3erO3H90B80qFrBKQmbHlEpqN9kOpoPE6SOUGhEEZHD24IgBdWmhfl/w8ppkCVbr7Z0KZGNZJwbhwqKimojQ2PDWai1Xd+6zW1v0fFiDUVFJkOYy3xjRwvV+jPcNMqe0XS85xQwBSDIns5mM6AErQs+2GIa63odaj1mp9ButgITNJUW1k6ftJFgEtPihS0bQJRAUjUqsZTapqfWKPLrdWNuh+ah2zqB9k/soFtE2j1aAp4cKDQA2FWYNagbKtPaqSwoc7n7ZpqdXphGITN4tRY+iK0C0ilRbPJpFQkJ6tORTh9nSib8QJz4VuXcxqajoZj+EuTN4UAiCphNTnRA/OX0F9w+TEpaCe2mJffX2oXJ8dPXhwdV8NKHhun1UD4zelOTWwDuJh+E1dB0wxnlUatG9+ESDO3o3BgKdLgsyiPuur9pxaNk/GUUsiZBZcXDhW8MPwBIcG1YP6uP4Nb5X9WuEprAKRfbWyfQivHwrq/a8Wjkcw6netyZVMy26PQCorAVlFCaOfAchanYbfPvWf29FZhb0dqdQ4/qksnR/wARX/AV/wABQ2IaGhcf1WQG5Xasvtyazu3R71bpXmxH3W6FqkIvhq9AiSSXZRmuKVywTm/56ePhXV+14tLRY5Ojk02GmoiMgikFKXj7UCa6dwmkKR0ub5p+4V5WHWMqBUjO0a+R8Ugq/gUGDy++mJMcE0PTx8K6v23FoNOEiXA7aiTbaGP3Rm1swLYRWLncrfTQwBQDAP3cihrTnBpLPaU5jpQq3m1Lb2wCmMkl/s9fHwrq/b8Wil1xCSn5eDCkNrwj+/8AziqUMvpCBt5VyenQscGPw8fCur9nxWeyQ+S3ms+urWsaD9Xj4V1fsum9oRe+QKjuTMIQ7lT0uYMG8oL/ABRpvhRnHnQc3zoza9hy0f8AFW28q8o15Rp1VwrYctOUudZIN7ScHcFYlwrfshndudL83jko+FMtdOwijgsezn1McQdD/qnQwBLDeFnxWCJsQ1CivJQ3XpdaEcGfaKGNFcuMulS4jyVY42xLRIZwURsm7wKHJYItuHlvx9tMMevhV6nQ+BAeFnrSSCMTgUJ1qFd3QXW1IiGTFPCF3VLtWySgZ+XCoNi7Ae9DNz4PukY7468f1V4fqrx/VXh+qvD9VAw3B0Js+4fdQLl2gd6Rk/G6lvMlaxJ4udT4TAZpIizofKUrgaBeCiOtQI1uRfhd61IMDl1K/vfINNShY8QZKC8ZatTMTSD1ojegujnl/wBj8pmZs7bdl3KLvU7kqdgadjU8Nodk1Cl7j3K85Q0P/Wv/2gAMAwEAAgADAAAAEPPPPPPPPPPPPPPPPPPPPPPPPPPPPPPPPPPPPPPPPPPPPPPPPPPPPPPPPPPPPNRpvs9PPPPPPPPPPPPPPPPPPG5KgAC5/wDzzzzzzzzzzzzzzzyoJVMBMkC3Tzzzzzzzzzzzzzz0H1uvkuScYfzzzzzzzzzzzzjrASE40IYSEtL/AM88888888885ZfDwtaIpMlDcUf88888888884phaDRgJDlKr4Km88888888888HzStxyA/JuAaae88888888888sxDBC9JtpBB688888888888888tgBD30RABHX888888888888888iBBCgjBBD3888888888888888ZBBBBBBBL8888888888888888oBBBBBBBG88888888888888470BBBBBBCqy08888888888nHzYeBBBBBBYRanh8888888885BSgMDJCAKFMKWMZ2888888889zpD1fxc059wpUC3W888888889RPxqAAAAAAXitgUW888888887AQzAAAAAEEBByBUW88888888uHF7DTjDBBBBBJLM8888888888s/CjYfzx7CFQdO88888888888888888888888888888888888888888888888888888888//EACgRAQACAQMDAwUAAwAAAAAAAAEAESEQMWEwQVEgQHFQgZHR8KGx8f/aAAgBAwEBPxD65UGo4l/+I0ttH2hSzB5lQ1bzKh2cmi0G6ji9hANw/wAxK9i2XYgmiIz50aH+7vEu9ACv5/fsMmUl48zZ2Kaw+WDyWbf1aJIgqbf1TdgOIeWjzFK1jGV7dYeyBMZhewp4mLQecyjSD8TZmWRLdm9CLMXcYgVp90yQjcDqC2Kp+yVKqLQzc8EA5RI1KGVib7wdioZZZC7BnKIH4cxUCnpum4KPeH779Tddp8FMX8pu6EwU2mT4mRJb3xACG426iPchN9/xBRsgJhF1amyaqVAuAqEV2xJLEMP5P1HqvJqFx0rQOXV9cR2HURZK5ouJfFUACjW5fsHqS8MEqUPmBs1dKPsO7obD2JwvQp/z7CpVyf8AXrpyDP3dUJiXKYZV49diZSozLleOlgMyoHjQaxO6BDzznnLOSck54ntzLW8soyRVgoeluR5I0LDNtowWlyS/KX5TknJBGiBK7ywKMuzx0zehiKl7XceCMA9Y03N42GUVEU2ulva2+u9bXTa6W5TF9oh20uXLl+oFg0PLqXMTg9DXNrHHKPEuX9Z//8QAKhEBAAIBAQUHBQEAAAAAAAAAAQARMSEQMEFRYSBAcZGx0eFQgaHB8PH/2gAIAQIBAT8Q+uKEBCq68iN2n5/EvqF05wD3SgauT3i48Aaf7LM1Sn0/V7MZ133fi5bgW3XDyxHjxjg+0V9x0Dnj3iV7XYetL9HZ4pK/HztcH14P69ob9UXFrWXR4Erb/uV6wOPgH8vpHjKz182f3CFssoK9yI2G4Pz7x+kczW/3AVCGuukA7gv33w5RCYc7ltE55835l+FOlHv6y1cnLn0uaIx4k6UTpGa35avWClROdP8AecW0nw+WWO0XxxcwzvFpFCP1LFXFajMynNyjRjnTyIAYJzkfmxOMI3yc43dr6R3le7GkCxHfgwQOMrnKZzOVsprzlKOcCUbr7RblCbzNMxxiDUIu0ZjN6nYzENBjeLcKquce4BW91lbQC+wGhx2iK32EuTaigm1NZOMRW7AuVx3Ci+0UbJzAjN7VBDHcBjcEV3FGhuPscdwslnKD+f8AO3fRpfbL3i1NWVNIhPN8dukc0vfJpNJUvnuqV0l845oQQ2MoYKI8IjwnUTpzoMGgZwQBaIRSyDZKUuGNzghKiGoCtES0nSnRnTnTnTnRgS2IqIqIbdZlhjc4olxbpYGWrdsApiW6y0Mq2zJDG5xbQHDt3tAcNmSGNzqNkCBMMuXLly+0oZgY+nhvKIWYZXx270J09r28Zay7FH1n/8QAKhABAAEDAwQBBAMBAQEAAAAAAREAITFBUWFxgZGhECBAscEw0fBQ4XD/2gAIAQEAAT8Q/wDrzHyngMw2zYYRFVKPTYYbK6pDY2z/ANvdNT6TqCAw3IPWCrKlgRxoyKY2uas++lEJlFw1EH/lPlfAhU3FI5sDsNKv/LJpG5KRqRuYVOmAsQXHpCb5YghRoLMyILmdea2VqA9Aqe3zS1byHPYUKKxKY2UiDdWCAuEj8WCTiZAUCW4nM0i/gLVYugRrgDm0mQrerqSYTUyf8Z0aUWLdy3JbBJKVdkTJJsF0zfEYNg1ZiYWr6TNVJQ7KwvoW97l9GFJgjjDNkiIiEOAobQeUjGThk7fQ80wI6Eg9Jjroap4NkLSSSEY1d1QmxZDtiXvM9FALskQ97MjvwSZgpuEwUNoClTZIxaSH/EASK3YXLVwR5RBhaMdwX0iwBYZhusu6j0YAGy1DzNjNpYFKrKytXfwSotZfvaf61qUkNbRD34vo1gEytOHAPFBwgD3/AF8HrSAQcjQ19N0flnif6DdaGUemofkWJAB/nlEiQJZEvJ/wSARu4VLHAytA3QbxMFsQA6EPQ0BQUY72vfUi70CAD5PAgrQ2LEe8j0qQnoyTEQWO/p8iqCinM0PVFVPCZAPkUVzdhPoOEJOscp+acmi54VadZc/YoxL/AIAoLKEAGVaFyCchIWMAoksQQXKow1LOEl3TQNAMsr8QgjmnY01Llox1ARux9ilkbsnJH+X512jX1ce6TwMLOqH4mj6Wb4ajx/xLPy1NuKPBlQ2uIaILEUvlaVMJk6BHdWI++KA6jFCDIbkh7Qotg0XcHhhEteKllVb5WrNf2uqzkb5aAYcmA5WxTC7QxfoXZpDgAGbpiDE9XFNzASSRYRNmvyJEwbKQkkbKjTarTJkwxl3JtWgMEg6iKgoICY2Ha9KgR3qCrIr3LlRonDUMAuDMN+eAY1iKlsOIgwk4Ikdga0felWu5b8COaKhSA4kCQlvalpxWKRq9ctvNJySIC9AflQrJUk+iYTHapg+wBvWBtEt2MrUq6RXUaloHuKOWoQ9kfvmgRqqPhlCsN33ooQ1gqECMh2QtWDYQFluFvqpo3ZWD7AD9tX2X2pGqgN5JCLtAOpKh5hSGst+XQEc1Oe9CsAYAszfHpWBTcs0CFHCEBa+sCUeJ9xxP3nyKwUuxHhK4g3sCpv8ArAA3l4PKpIzEARcIN23hQjkxPLA91FHMq7tJ91Cj2RZXLa2HQAIAP4nOFm41RESulqQDcidIp5RUjHkgAvaQvEmrb9FyMIAVgNhCkJPc2wsvgp5oJi1CEeyzzV6v9wDfZopKjYAJVq06mGX2g5W4wl6fiSgyNoAodVXUWJYUHmihKcCBlTYOXVN6JonMkeGURrJBuAgPKUrSggC7sn7oMYGW2dWPTQoe1jPQs70EdWJbyPspDZkI7kTxQnFAQfHyBIDdYrjjynsUFaiZK8gouwo/JGCgx1IJwO0PzUisSh0rJHVah+M3MGdbi9SrFeFdUwgciEOYihrWRpgZr6xNGczo71lEdbUJZNhgbD9h5o/tkIl6oSJoibwyH2w1aXIvpOygflaQLhAIjEhdV6IzM2KlbHLgsoMFpEke9Q66SAwxLr8mQi6eejX0c06YZnxSEodZnK09sPSjlAX4HZMoM1lED6MR796dgw2g3yKT6IR/u58EWATaIeRpt7Xy8aw2TRb1XD3SBjux7WBQjGdQPZvSgmPgHagjw1OtuWegln4QRHFH8TBAdimwYcDL0FoEALATGYW6JFMJzEC2LKSLCXlcuGm1rsQpkeyfa61GVBjbKcSz70MJe8r+qEWNwSF9UFVrKe53UAsovEMy3E1WlxbxUzxxqhuNuKDLIqzjXk1eYGIpdlOxZro1Fm9wdilRCuq71aRaswD0TCOo2daUhFwNsDYbAvYfCCQgmzXOGcifFABAQHwYG7GERCzcQ0gnK0cBOJXehSw+puetcdynv0WVOb3LX0FOQdhuPI/sqfCsJl7P91JDTdDHdWANVph8QXB6QY6boVp1Jkbhfb5qwL2H/ijy3MlOIn81Ok+dwLsh2+1ioPooTgDtb2pDCISJhoFI8BoljKQ+NCstiWM8dDPjmj/Bl/8AiNXgabm1m67cBgCwAFG5CQbnV/VJjSTiCxSRIMyQSapayYBIQ0khjSaVz5YEfx+qUUoyysEtSbF44OKuv2GsS6AIABVYZgJijqGJ9UTYDRlAmXUiXZCbAYSUH+zV8Kb3iJpQqMheUzHisog5f1UCR+WmDbDnDAfhpPQNRCI13Ae/2xOkZREoMpQbGWKJhAHwy8W7PxCiyD1ihfRY1WCrh8Jd3K92WnKBBogPTyfBBSkmzUfv4RFCA65T+KmNCSYaXp7fEn0RAHOZKjxS7EeTc4pWiIALrTIyS9SzHulhsQSJAy5GO/wOLqjUpPRGiZ8gUxMBSxV5v7hAXHEqb4ms5ZKCchuxLy/bPsQF6Nki2AWkkk1qbctxrhEJCIGE6UOzzFsmjWtaqOtQaIAnKj2fENzAWASxeCzGLMMRV3C0FhiUWHIpS3NYJGu6gEniu+INyB8Av0JSMUgDbK8rKuqrUY/nd04XAQhEt02BckS47dW78XotCXeXL8UhhnwGMCrcKTpFA+8BlggHVgBC+G96Mt62of1Ti7AF/NF2AmdqBbYMjwi4Mk3UHETXt0SUMYdX4BwcDAannfxvEMeToIDB2hlZlRl9xNsQY5LZKnUlSpN6IaqLwOC2a42uWZoKdCIV/TDzFQPYPluXGYZHcnDzTNIsoQ8KjtR4yR7YZdyiB7AMOwFihIgbVfcVwFUAzKyarofhh0Fyl3lQmo7Ao4F9VAgluwBdpSUC6GtYaZNTqoveg70bW/zVyBYVHDqdn5cgEQOrPbxTCpmuwugLuSkxWy38H4UVTQUg0RluYRiBKBsKQCIAFgC0fcydBCI2zheRNsVeAxCWUASdZWRAuqEBELeFUW6pR9JS6sPVFNF3YyeEk5CjKuVRU08saOMTEXkTpmlOVZS6yrpBdVsbfDigCwIPpPoFnKIZzJ7TQFYQoRAFsBxF80mAoKGZJCLF0hJEmPvGncCC2Q8vOfqLeIdaG00dZlxT5EOJeIspsS0a2M0WENnAlLNhhiEPLQxY+aXoy6daVVW6/SwBpiAjz4mjTCCOS/75RgTFCKHdUS6akZIZCWM2tOPqWRNZDgMoQCUgFhR7CcukICIiSNFSwENGJCxdtRQcCRpGAIBwFS4SkhQwCgCwyxUh+YN3LJeDLglVgn6jRUFSDcg3uOaxcwc++eMVriZsA6zUZAXKYiQNAV1+uUdvetM241jbcoeZ4vlcFe5cBIIveCAFLrDyMJ270OCCmDAD0l4RJc0OGMzkTLkGi0r6gXUvRIaBOrEFSobQITNHIoL2offY8FCbV6KoICApzGX/ACv9bM0ZyzwaZ6yOEShKqRinKuK7kaYocRkwucXvDNMR6Fl1oNjCKApsofWOfbHN1A6AoWzNZAdbBPP35xUD3HtUl8J+xF6tDZcn+N6sBboSrHpb2+/cUdh6W3T7KuB+w8RCc87nmhdDxQEAdv8AgXansMV+EdI4H9/zgOaRgC60PUnjoKnhn/CsYf8APBChAGzL5Y903fht/JP/AAc0EsIujusKSya9Qkp7j/M0rw65kbDRZe9SFT19+kv/AAHFBwLKV6HvUycWz1/MRpBg+Vj21C8DJ3aFOKlxoy/p+9QIAEq6UyPCBYZmI8Upbbk3m+qTBM0QggTDeKEFoxSAiPk9qke4GdZH8H80wLrc0LHtfFOHCjokUqGGAzCJtZh0xQAk1EXm+qIs0gFVdpTxR9gShkTf7csLKEAGVamRwSEHZVxya3M0Qothq7VSdIF9cyI6CKlv8AFImQjkhkB8j2KVlsz3B/7/ADQsExDi77X4HtDLkYfhLeltQMHjiCAcM0yeCCJGBgdaDPnJIi0BYOSaNDokkSIlkTX7MQjcijVhsDUbOtmTJFrAxeAi8ooEfDSW1LNCAfoAOgVl5mSRmmONp3N/7j+Vn4cmwUkkv6yzUMQQAcrQrTQRLaoblktUt6PhBtTsrNPX4LLLvra2obIAE+CIQjGjDhx9k7WPVCgHRFHhqx+VpRp5WOTd4rTe0CTSBjdii/JrUx0vATrj+nR8VKSEMSTBI1LjyNH8kbt43dH4WlglxTjRIWjI14bbK0WJryvwcvqgoOnY8UFMLwt/RSFyIR0flTSirIFZgBDt9mZMREWg6Oh5WZyRTC48EByHCcnwMkhx77Hn9/QW9gNdR+6CP1GBjURhgtNAYSZkHqP1Q4JE8UjnXoi8tAQdYU4c2lQpadGR5NHS8V/R8smQJJwCrsoT+HcUiWhNjJoal9Roz8CxaAkd2aGuxmxYBG6STOtHKAv2Hx+flJIox+Xe0f8AcVMFD3zSaOu3VrmLOx1HV4bZftI1np0YK1A3UbUT7bZYgymNBEF6E1IeBP7+iB8yI3KvA6VJUm9Sb1Jv8Wq1Wq1WpJvUm9Sb0po7QGS5lf1HyoF2qLOnovUGOIqAQF4b51oUHYKDsfajGs9P4Awsw2E/KKB1peZH6qX/AAgWJca/CyyQrYyz3KKgUSnJEz+KBlZAUiZvyB3pydvD/AUCf88YWjYv/JfQMdB++sRHT4eShqS8lX+L/dDMR81sRyr/AEKZnrP1Vfj+U/Gkx/njKUXvsf5OjkKAJA2IgtMvFDfChUaQv6ioM5K9aBONMfABYIOH90ZmSM5m37q6eU9ZPtgxrPT+BbCUROpBww9qWYHUF9NHcde9GwmA1LFahfYp0vbTZNJuLd/xSwYWTUs+YDu/mYjEYlYRG6iwbxU/RzLG93rU/wCzoy12kouWhXpHLeEeqaW6JIRFztfqv2wxrPT+Q/p1A2kMJo9nSB8qwsQcjgcilDLp3JP3RgFmAt5j+qBQIHYYZHLfbMhvNlwAgA2j+aVMrgyqSSq1Cc8mqa36IBS0XCWS5WB1F4/NEgoCZXgM0UUmrh0f6edvtxjWen9BgrAadRtUNt6TwQVaZEe+In+Zopg3TD+6WtbV+IlJgKHmt/vDximgZyFLx9wMawBKSkCfskAN0KLQcCx5qTl3Gd9/vRjMoEuUCAV0L7iaRsrNxphwkkPNRaKFIZdww5owBobh/VGz1C/uj5vRFaJdJ/qlYHQH90bN2f3S8o61H0O+hdZ/rauf/rih46CqOH7P7ouf1BSfbD/VHx/gdZpyQ9X6Uqsqru/x7czlfoMvagKOb3hguqwAmpvQGIgrJkTLWPs0lnIKwCAtwCwyCAmCKby6tEQqghDKhyaXILaIjufsangjdIE3kh9UUbxgJR6QaAEA6jP2gEoA1aVMwYYY9JNRYZsoL3b+qkzWweBl/QUEoRXNEiAmmFDEpUqlIYSIS7eWZMFJBT7YrcMD4/eh8xG7ql71m0CDFsIPesMJwe7BB3pNnc+Owpkehh+lAltRp7WlJIGsTo/owF+FRzl2D1Qv/MthrlfRDHDORULngP2wqCD7wPdBdLAvyoSyDSY0sBtvxKUz2eT9qOtmFZ6ApdG5qPaQ9qGkE8XcA3pU6TwIHZHpNIXTo3eJ/eo+671FEN7z++KidHeXlKnwk4UJ5aeb1R7L7qK7KH4D+aVQM4skcan1CIicrlmEI6tR0t6zubP5qAbSQeh90pAMgL4aHHzfPKVFEyYfxRQAAEB8zU//AFX/2Q==;" vertex="1" parent="1">
          <mxGeometry x="400" y="-210" width="290" height="290" as="geometry" />
        </mxCell>
        <mxCell id="g2oeOAWX-h5-nGp9rk8Z-33" value="&lt;h1&gt;&lt;font style=&quot;font-size: 50px;&quot; color=&quot;#000000&quot;&gt;Ploomber Pipeline&lt;/font&gt;&lt;/h1&gt;" style="text;html=1;strokeColor=none;fillColor=none;spacing=5;spacingTop=-20;whiteSpace=wrap;overflow=hidden;rounded=0;" vertex="1" parent="1">
          <mxGeometry x="650" y="-160" width="510" height="120" as="geometry" />
        </mxCell>
        <mxCell id="g2oeOAWX-h5-nGp9rk8Z-36" value="" style="endArrow=none;html=1;rounded=0;strokeColor=#000000;strokeWidth=24;exitX=0.488;exitY=-0.002;exitDx=0;exitDy=0;exitPerimeter=0;fontSize=10;" edge="1" parent="1" source="g2oeOAWX-h5-nGp9rk8Z-1">
          <mxGeometry width="50" height="50" relative="1" as="geometry">
            <mxPoint x="1300" y="-60" as="sourcePoint" />
            <mxPoint x="1300" y="920" as="targetPoint" />
          </mxGeometry>
        </mxCell>
        <mxCell id="g2oeOAWX-h5-nGp9rk8Z-34" value="" style="shape=image;aspect=fixed;image=data:image/png,iVBORw0KGgoAAAANSUhEUgAABLIAAAE1CAMAAADETzkMAAAAGXRFWHRTb2Z0d2FyZQBBZG9iZSBJbWFnZVJlYWR5ccllPAAAA/lpVFh0WE1MOmNvbS5hZG9iZS54bXAAAAAAADw/eHBhY2tldCBiZWdpbj0i77u/IiBpZD0iVzVNME1wQ2VoaUh6cmVTek5UY3prYzlkIj8+IDx4OnhtcG1ldGEgeG1sbnM6eD0iYWRvYmU6bnM6bWV0YS8iIHg6eG1wdGs9IkFkb2JlIFhNUCBDb3JlIDUuNi1jMTQ1IDc5LjE2MzQ5OSwgMjAxOC8wOC8xMy0xNjo0MDoyMiAgICAgICAgIj4gPHJkZjpSREYgeG1sbnM6cmRmPSJodHRwOi8vd3d3LnczLm9yZy8xOTk5LzAyLzIyLXJkZi1zeW50YXgtbnMjIj4gPHJkZjpEZXNjcmlwdGlvbiByZGY6YWJvdXQ9IiIgeG1sbnM6eG1wTU09Imh0dHA6Ly9ucy5hZG9iZS5jb20veGFwLzEuMC9tbS8iIHhtbG5zOnN0UmVmPSJodHRwOi8vbnMuYWRvYmUuY29tL3hhcC8xLjAvc1R5cGUvUmVzb3VyY2VSZWYjIiB4bWxuczp4bXA9Imh0dHA6Ly9ucy5hZG9iZS5jb20veGFwLzEuMC8iIHhtbG5zOmRjPSJodHRwOi8vcHVybC5vcmcvZGMvZWxlbWVudHMvMS4xLyIgeG1wTU06T3JpZ2luYWxEb2N1bWVudElEPSJ1dWlkOjVEMjA4OTI0OTNCRkRCMTE5MTRBODU5MEQzMTUwOEM4IiB4bXBNTTpEb2N1bWVudElEPSJ4bXAuZGlkOkYxMDM5NTY2QTUwRDExRTk5RTBCOTFCODRDOUI5NjRDIiB4bXBNTTpJbnN0YW5jZUlEPSJ4bXAuaWlkOkYxMDM5NTY1QTUwRDExRTk5RTBCOTFCODRDOUI5NjRDIiB4bXA6Q3JlYXRvclRvb2w9IkFkb2JlIElsbHVzdHJhdG9yIENDIDIyLjEgKE1hY2ludG9zaCkiPiA8eG1wTU06RGVyaXZlZEZyb20gc3RSZWY6aW5zdGFuY2VJRD0idXVpZDplODU0NTY5ZC0wNWE0LWEyNGMtYTNlNy1jOTFiNjFkMGU4ZmQiIHN0UmVmOmRvY3VtZW50SUQ9InhtcC5kaWQ6YTEzZWM3OTEtMDMzOC00MWMxLWI2ZDAtNTJjODgyY2Y4Y2I2Ii8+IDxkYzp0aXRsZT4gPHJkZjpBbHQ+IDxyZGY6bGkgeG1sOmxhbmc9IngtZGVmYXVsdCI+aG9yaXpvbnRhbDwvcmRmOmxpPiA8L3JkZjpBbHQ+IDwvZGM6dGl0bGU+IDwvcmRmOkRlc2NyaXB0aW9uPiA8L3JkZjpSREY+IDwveDp4bXBtZXRhPiA8P3hwYWNrZXQgZW5kPSJyIj8+ugiBnwAAAwBQTFRFAAAAJJbtJJbtJJbtJJbtJJbtJJbtJJbtJJbtJJbtJJbtJJbtJJbtJJbtJJbtJJbtJJbtJJbtJJbtJJbtJJbtJJbtJJbtJJbtJJbtJJbtJJbtJJbtJJbtJJbtJJbtJJbtJJbtJJbtJJbtJJbtJJbtJJbtJJbtJJbtJJbtJJbtJJbtJJbtJJbtJJbtJJbtJJbtJJbtJJbtJJbtJJbtJJbtJJbtJJbtJJbtJJbtJJbtJJbtJJbtJJbtJJbtJJbtJJbtJJbtJJbtJJbtJJbtJJbtJJbtJJbtJJbtJJbtJJbtJJbtJJbtJJbtJJbtJJbtJJbtJJbtJJbtJJbtJJbtJJbtJJbtJJbtJJbtJJbtJJbtJJbtJJbtJJbtJJbtJJbtJJbtJJbtJJbtJJbtJJbtJJbtJJbtJJbtJJbtJJbtJJbtJJbtJJbtJJbtJJbtJJbtJJbtJJbtJJbtJJbtJJbtJJbtJJbtJJbtJJbtJJbtJJbtJJbtJJbtJJbtJJbtJJbtJJbtJJbtJJbtJJbtJJbtJJbtJJbtJJbtJJbtJJbtJJbtJJbtJJbtJJbtJJbtJJbtJJbtJJbtJJbtJJbtJJbtJJbtJJbtJJbtJJbtJJbtJJbtJJbtJJbtJJbtJJbtJJbtJJbtJJbtJJbtJJbtJJbtJJbtJJbtJJbtJJbtJJbtJJbtJJbtJJbtJJbtJJbtJJbtJJbtJJbtJJbtJJbtJJbtJJbtJJbtJJbtJJbtJJbtJJbtJJbtJJbtJJbtJJbtJJbtJJbtJJbtJJbtJJbtJJbtJJbtJJbtJJbtJJbtJJbtJJbtJJbtJJbtJJbtJJbtJJbtJJbtJJbtJJbtJJbtJJbtJJbtJJbtJJbtJJbtJJbtJJbtJJbtJJbtJJbtJJbtJJbtJJbtJJbtJJbtJJbtJJbtJJbtJJbtJJbtJJbtJJbtJJbtJJbtJJbtJJbtJJbtJJbtJJbtJJbtJJbtJJbtJJbtJJbtJJbtJJbtJJbtJJbtJJbtJJbtJJbtJJbtJJbtJJbtJJbtULnpaQAAAP90Uk5TAAECAwQFBgcICQoLDA0ODxAREhMUFRYXGBkaGxwdHh8gISIjJCUmJygpKissLS4vMDEyMzQ1Njc4OTo7PD0+P0BBQkNERUZHSElKS0xNTk9QUVJTVFVWV1hZWltcXV5fYGFiY2RlZmdoaWprbG1ub3BxcnN0dXZ3eHl6e3x9fn+AgYKDhIWGh4iJiouMjY6PkJGSk5SVlpeYmZqbnJ2en6ChoqOkpaanqKmqq6ytrq+wsbKztLW2t7i5uru8vb6/wMHCw8TFxsfIycrLzM3Oz9DR0tPU1dbX2Nna29zd3t/g4eLj5OXm5+jp6uvs7e7v8PHy8/T19vf4+fr7/P3+6wjZNQAAL/9JREFUeNrtnXeADkcfx/d5rrnTTjlOP130FjWEIHpJkJBTTpCIeoI4IZwWRIkeCeJSlOgvEr0ECaKGi+hE1NPuuJxzbV8Rx5VnZmd2Z8vz+H7+vZ2d3+zOfZ7d2ZnfSJIL0PqUzEbEcLsEAACmUj9RZmYkLhcAwFxWsxtLvovLBQAwl6McypKz4noBAEzlGI+yfHG9AABQFgAAQFkAACgLAACgLAAAgLIAAFAWAABAWQAAAGUBAKAsAACAsgAAAMoCAEBZAAAAZQEAAJQFAICyAAAAygIAACgLAABlAQAAlAUAAFAWAADKAgAAKAsAAKAsAACUBQAAUBYAAEBZAAAoCwAAoCwAAICyAABQFgAAQFkAAABlAQCckF95lOWF6wUAMJWxHMbag8sFADCXzAeZjRVRHpcLAGAynp0mTWdhav+cuFgAAAAAAAAAAAAAAAAAAAAAAAAAAAAAZ6Z4qzZMVEhZKGtjtkKveacoVKQlW6HKNtwVAIBD3MKY56Rvz/qsVIdo1kI3aieXsX/BXNPeHLgxAABHDOFY+bcwuVDROPZCERmfFurNUdMPuDEAAEfs5xBJVHKhgTxJGZo8LbSdo0ycG+4MAMABl3jsk1wolKdQ0NNCyJcFAICyAABQFpQFAICyoCwAAJQFAICyoCwAAJQFZQEAoCxe3Pt4494DAGU5i7JGyZc7YiUjAFCWcyirWsLjOn6pitsPAJTlBMryOf2kkqRF/ugAAEBZllfWs5wS9/tiMSMAUJbFldU05b7UxdAHAICyrKws3+spa4rugk4AAJRlYWUtSFNXGOY7AABlWVZZddJVdiQA/QAAKMuaynJzEMfNmugIAEBZllTW+46qe9gePQEAKMuCyvK57rC+xA/QFQCAsqynrGGkGj9GXwAAyrKasnwjiVWORWcAAMqymLI+odQZgt4AAJRlKWVluk2rdAi6AwBQlpWUFUyv9R30BwCgLOsoy/1vhR1f66JDAABlWUZZbypVe+8l9AgAoCyrKGubYr2nM6NLAABlWUNZJRkqXoH0ygBAWdZQ1nSWmgeiTwAAZVlBWW4RLDXHV0OnAADKsoCyGrNVfSYjegUAUJb5ylrEWPcM9AoAoCzTleUVxVh3Um10CwCsykXdldXVIspqzVx5uDv6BQAW5VcOj9xNLtSfxz6vPy20jaNMrF18S79mr/5D9AsALEpfDpHMSS5U8CF7oasZnhbqxlHTN+IbarvBXn1UTnQMAKyJbXoS6z/yquef0prfZi10ofKzmiYmsBb6Kav4hlbieTKchY4BgFXxr1uPiYCUhTLUYCtUJeVuzH6MNRXVo5mDeZQVV9AFbqyPLzo3I1l9cA2A1djAoyx5oZO3tub0w//IcsKFpR08ceup2FssOhMvyw/2TyiFiwGs9AIcyaWsBKd+zKqy53lLrr+HVZMUWp17fqlWFsT1AJahlMzHNCdu64D4VE3ZjBdEEp5fpc491AKXBFiFrpzKis7itE0dk7YtJ/xw/x0ba33aveECcVGARZjJqSy5r7O2tHP6tvzqgQ7giPRT9eJexVUB1mAHr7LCnbShee47aMxIdAAHtHc0jTALrguwBDd4lSW/7JwNne2oLTGYG+vgtfCyo0s1HhfGSOpODWNiRrPnZTIP+JKpzIKP8zwvZGsxk62mySmWGGfsw1bTwk8KPC/k3nEuU6FF48rSrkw2bmM5aUIH72js0chIB8fp/71wZYzjY/b/x5nJZXKdYV9iWP5ZTfPZaxqUXCb7H+wLZp6l2XPfxFwovj3l0lTmV9YNuzP2gaaOG7MP/x3pWO34UjXDlTGMIgkc/5A1nxaaw1FmZ3JNr3IUis/3tNAkjkIHkmvi+dB3h/L72IZfWbJT5qAZRZjOj+QUrGMFn+LKGMY7PP+PyTsjh/MsY1HxOCfL7Z4W2s9TKAP/45wslydfm/4qlDXZGTvBQkJj8uP/Iw0ZCVdqOS6NYQTx/D+GPi1k8RR/YTyFKpKvzTgVyjrujJ1gDaExFfD/kYYAwpXahksDZVlAWV+oUJac2wk7wVr+awNlpWIXLg2UZQFl/aBGWR2gLCgLQFmmKGutGmXNgLKgLABlmaKsrWqUdQDKgrIAlGWKsnapUdYjdygLygJQltMoS05O+papVK1mgX2HhYZOnT4tNHREn3eaVs/vBmVBWQDK0ktZW1Qpq2PZN4bM3/Knww0QE/7ePX9gYz8oC8oCUJZFht9Z+Gt537I2KAvKAlCWUGUtlXXk5tdtvKEsKAtAWeKUNVvWl+jvXrdDWVAWgLIEKWu0rDsXQrJBWVAWgLKEKKuXbADRn+WEsqAsAGUJUFYT2RAiR/pAWVAWgLI0K6uUbBAXm0BZUBaAsrQqyzPBKGfJsz2hLCgLQFnalCX9YZiy5H3+UBaUBaAsbcpaapyy5KvVoSwoC0BZmpQ1xEBlyY+6Q1lQFoCytCirhpHKks9DWVAWgLK0KMvzoZHKmgBlQVkAytKiLGmbkcoqB2VBWQDK0qSsYAONdQrD71AWgLK0KaukgcoaCWVBWQDK0qYsI2dmFYOyoCwAZWlU1ieGGWu7BGVBWQDK0qisooYpqy2UBWUBKEurslRuWaFi8N0OZUFZAMrSrKyOBimriwRlQVkAytKsLM8IQ4x13A5lQVkAytKuLOljQ5TVTIKyoCwAZQlQlu8DA4y1ToKyoCwAZYlQljRRf2PFFIKyoCzARleef60RTwud1V1ZgU8LHeEplEUXZflG6q6swRKUBWUBNurw/Gt1fFroJ44yF5Jr6sJTU3K+u+UcZSKSaxrFUSgpt+IlCtHbWD/boSwoCzBi+4Vj7lDy9sb1E9kL9Uquyec8x1Tw5O3fa8areFbJd5e90ELlS+R9UV9jRRaSoCwoC7Diu5DxM37k0rzPCjU9+IipTPzpns9rKrCS8RUr4osszwo1+C2WqUzCub62Z4XKbY5me8T6ezzLNhGt9FVWRwnKgrIAEId7uJ7Gmm1+A6EsKAu4kLA6ntZ1IMvT/CZCWVAWcBX8Prqs61vh2RwWaCSUBWUBl8C77eo4fcexIopZoZ1QFpQFnJ8C7y6PlnUmqrIlmgplQVnAucnd6vOTBqzTiapujeZCWVAWcFr8Xxu8/JJsCHoZy5aneovO/UNDx00fHTqsd2DjsjnMU5Y9X42WXYJDQ8dPCw39uNfbr5fJbOJ7fsnX2r03NDR08qTQ0EHd29Yu7GU1ZWWo3XvUxI/fyi/gVG55y9Zp3T7oMe1avlLa3ya0g5UN+mTSqB5V3RiPz1Whaae+I0LHTg0dEdwnqHm1Al7wjAC8CtQKHLFw713ZMG7osAtY8cCJ686lH3+LOrxkaJOcxirLVqrL5A0X0k8FjjwYNqRRFmNvbsY6wfN/uZW+gZe3z+5Z2cMqyir8ZdTT0/3WyU39aXI2Dp6/+680F/7R+R1z+tQT8nuRZfhfT096bVx2hWP9mgxbdtRBYoF7J9ZM7lKG0siSfRftOHQMkLkUJRvNnwGC/y/LDtxwh756YUGHHMYoy1ZxyCbqvOGkk3Pf9DVIV82nH02gxRK7a3RdN/OVlWFCyp+aQy+pOkmhHovP0S57+Px3/DTG2fJ6ihPe7kA+MNvb80/R/wWiNw12+LNta39ABpZjSzaR/5dudWZdYZrvv29QYb2V5d5g3g2WWBJ39curt69y9djE9M333pK2XuYqq06a2X/Rjbh/J2pMOcPS1qOflNYQ5/A0Z/vU8Stn3n672Vb1nZ1YPG3ZonuhBwsyyU3gP2aJCdc4qt7bI7OOyiozlSOPa9L2wAz6+crjzfUJHCOLi2qZp6wsc9JnJKrFdYbi4zkmEP45xF9loEPTnWucg0GWDluTODrk5gapSjd5AD1Yj9vNxf1j2lvs4K3+wayS+ijLrR33D+S9yQV0esAK5c6BfaJnBnOU1cyRbq6wzzK2v8m7rUr8mrpqAm3sQEVp94bK/+kd3gu/tXyKaxEHP1iPTeJeiNyDVC0nSlpdRbyyPHtdVBNLwpLS4oVVcF6smlhuhmQyXlk5vnN80q+Yr/sFNW091IE76ZH3X46uWdaUh5QKi1cRy6Ph7slP6f/AD5YjMkjcE1aXc6rDWFdWrLLc31O9tClpSVGxwso3T/VP9e2PvA1W1tu3SC4vyiYs1df9jzaccx/6OTzNsOcHFFuSpDKWzf+Jz/0IBGE5vs0t7D/zlUNaAkn6OrdAZTU6oSWWuMkCvx96j9T0S33pbSOVle9/5Eg+Yyjf4oyWtv5agyvYow5Pcj75z9lna3ipO/HkU+b7EITV2F9b2H+m32KtwUQFuwlSVr7VWmO5JWwnx5aaF7LvLGGUsmw9aXNBziiWL7ZZa1u/45j04E84x38LZe29tE1q/M3r8fW4CEVYi5NviJuF3OW2gIAOlhWhLNv7Iqa1bS0sZNR9mYBQYj92N0RZRXfS41CYcev+UYz2tt5h/61oRDjFkwH4svu1RjJGkurCEZbiYFtxSd5zrBETU3yIm2Zl5dksJpbobgIesW6JieXXovory22QknHK0B+xfhPT1h9zMQZM2o5rwOO2DH+kOY5/ckoTYAnrEL/iNYHjy69dFRbYz/k1Kqv5LWGxrNQ4vzbDXGGhRAfqrayyysah3oBuwhKNRDDOuelLKB8sBQiZ/dlP2gpRWIU/h+cRKCzb0ESBsd1qqEVZ9rEir9OFClquS6GDImOZ46mnsrxGM0wGKEGx89ci2zqBaWZzMElZre8JieIn6RxUYQlOTxKbxSXjSrHxJd5WryzfjWJjiemk/rrUvyU2ll9y6aesGkz7CWQ0yM6yvC2HBmX9ISiIq1IEbGE6kT8OEDznSMpz2KjglZVVSHxasbFqv1AECZ82fbG0Tsrymc70mHyOeIIqN0S39XxJ9coShhQJY5hJ7OFFfcqL31W19F+yZZQl/j/nMYvVbeARqkMot6vpoqyGF9mq/4I4GUuHKeJ3X7WAsm5BG2Zw7+yB/00PblXaXZelcy8beFeVlFVXn5Q9W3xUDO/N1SWUm4XEK8t3IWvt1QhnCEzUo61xrc1WVpx0CfowjmYBAaUqBgT4++pjqmRqG5nYS0FZjWJ0qndvVu75Aot0CmWPXbSy2lxnrftHwhk+0KmtiYEmK+sklGUghyVDqBkjW0ZZDfVbcn+A01n2xbqF0lGssvxXsL+VFjDWWI/paa6yFkBZBtLDEGNVNzZ5KlVZ9fS0526ud0PbF0b9FmlVVlf2vCyknQF66HjZFZ6z9FZWEyjLOKIyGmGs0gaPTtKUVUVfe27lGYOfpmckxcUpqxDHMoHjpRyfo0Oino1NbG+isk7apRNQiVHMMsJYef6SLaOsgBs61/0N+1yH/roG0l2Usuz92Kerx4US8jrX0zkBXmwd85TVSpKOQSVGUdoAY2UyPJUQWVnZ/tS98jGs1+UNXZ87UmeA0aCsUr9wjOWVJT1n6z5x6W4ps5T1/eMa9kElBrHLAGPZ2Oe8x4evnBLcqU3Dek3e6D507uYrwpXlxv6GE/f78s/6B7ZpUK/pmz1C5m27zl57O8aleuzPLnd3LRz5fvsW9Rq3Ceo1acVhtoLzhSjLYzh7ltSYgaTlM9k50o9GHVs7KzQkODgkdM663znSqZ/LJlxZCadWT/uwc5tG9dp07PbhpGVHHI6CHvh3+HIXXGIQHQxQ1keMT/abB9dM+1KRs9XUP4Qq61PG/70NwdXS7hKY+80ZjKmfo8uyXJZsjMvSLn/ZsVDa3C1V+q1Q1taXIpRVheONZ1thzb8U4dM6FE/1Ym0vFTibdf3eRjeRyorbMaxO2jyvbmW6fZ/2t2v3k4/E6+ASY4jw1N9Y9VlefxLXdyDlLi864rQwZbVmetRb05aUkrjUaKanhTOZGJ49N7Cc6drEKoTy3m2XKYwOfapdWRkmse/0E/kueRCPbQX63g8KOi5efBCbOMcKU1bSxs6k6Sq26pNTWOvhyP+mMy6FTIxhvP7GysGQbebuWOpmNbZ665KEKCsfQ3LBiE+o207ZG7M8MCxSnw8lJT+3oU7vzTOeOvMgSLOy6nLkOl5NuWz1GW7f7U+L00KpOIdhqU/iq2KUFflZIfr83xYr/3vIPTMuOc/JfMjEEOLz668s5Yx+t4cqP5SU/kGAsuzbFQteD/ZWjKXS/5QDeEvpJOWVR4g2Kac39wmhjGoX06isLBxLiW60pUSZXXlM8nI/xck2OUcr/+BcyS5AWXdCMit3a4+KLdvUT5GX6XPYxBCW6m+sTopDBpOyMJ2oyl7NyuqjVOzh6ExMsdRW3G3jtkJicnfFpBbH6jGFknMW6dXtmMappM05MtEvomY4XKJU/N4gpgEK38mKCUS/06wslfuPjIJNDKGa7sbyU/pl/LkE84dHjgnYDpVV8L5Cqc0BzOtseiuda4m2TxIP+jNn0qhEGOfpqklZOb9n70YX6VvaN1cqPzc7a1uL/KR0rqYalbW7lLqO3g82MYJf9H/IUuj4sf14ckz5/6hJWevpZaK5li4VVPqq3Zj6r/dQQeSFOELxCHWUJvQ3TcuiO7IvV0icTn+ny6TwtHaxPs9176bwW3E5oxZlxQ5Qm/MsEDoxgva6G6sWPYCz5ThneA1MUK+spvQi4SX4YnEbSR9TPuWheoAvaZQbXyx10k8ai0wzmM2lrHwcn+zDlUbcFDZy+D4TX1uVspqO1aCsc+VV9/Rm0IkBXHLX21h2evfaxD9qUO+OWmV50Ke9r+Jfa9mc/oMfTC75GrXg/WbcofjvTnOOqLqSamXZ3rvP3IeI63OeUZj6nSGuL3dbvehZux4GqFbWZg276NaATwxgsO4PWR2o9S9wU3HKkhdUKqsXtcA0NUlYK1Lnb9wmflawHaV+9VLzU+8xMdXst/OVJNXKKr6TvQsdUJ40S92dMaq+mm71IfcoIpOyFmj5CS8Gn+hPdFa9jeVOndYzRd2wQf5TqpTl/Tft+E9U9lPqcu9QUrE21JcTlfu4Vn6+/Ubk6PQZcFiV5TaYPTUPeX3OcyrQXp9vVVbX1iDa7OSk0uqUNUXT5sI+EIr+6J/DIYhW/edqz5r7nBplUTvtKLWxBNBmHEUS3jPstEQl59RPlSvc6/u9p47vmO1w7j6jssodYu9A21jkupZmrBJqm9qW5qxlqpQ1TWNn/wdG0Zukonoby0bbxCZM/W9agav8ynKnPWTNUN/GErSxtSGOy7SgFLlZTKebwaQsrzHxzP2Htj7nOaVpb4WV1TenO61nl1ChrEU2jRf4LJSiN8t1f8iifaLbqWVxY6VobmV1pBy8zk1DLK9QZjdedjw4soPyqlVVMlFZNTiWoK/2Z6p2AWXkvZ6W9oRQYpvDr6ztmhfb/gql6E0V3ZW1hfLPnFPTmdtzK4uyJfvpzJpioaUHdrhspxKlwDuSecrKOJ19ISd1fU4KclE+F/bR1iDKlPp/svMq61IOzRd4GZSiM1t0N1YR8n9AQnWN557BqawK5ENjy2iMJYx87q2Ojp9DPn6uZJ6yGl1k7zz09TkpGEIZGdDYIB9Kcod+nMqKr679Ak+GU3Smge7KGiv8A12KQZff+ZQ1k6N785KJ/DkgyUEylQzkhcwnvU1Tlu8i9q6jsD4nJeSvu2d9tLaoBPnT5hFOZQ0XcIH7wyn6sl93Y9nIEwCOap/DWimBR1ke5EHy3TbNsdQhxzEi/dHkUbXE6pJZynqTPSG+0vqclJAXPyTV0d6kYPafLLqyjoiYU/0GpKIvbXRXFnk6cNLLAk4/iUdZTcivBC8JiOVL4ul/T3/wKuLBsyWTlOXPnulaeX0O2/v7TAFNsu8hnn48j7KShAzrVoFUdOWoTXdlTSVW/rWI02e+zqEs8hKP6SJiyXGPeP50M0kyERdE38lmkrKC7jL3m/jRXhx12ogLoiOzi2hTReJo6SkeZS0UcoGzwSq68qbuxpKIC2se5hFy/h7syrITM+BE+gqJZSAxkHSLotoSDw2WTFFWwBb2bvNbWa46qxFPNERMo8gDcGXYlSWoP0p3oRUdOWnX3VhF9X2wkST3c8zKIj+zh4qJxfsa84fZr0hHXvM2RVm32Lf5ifmQcwLbSNKZrgpqaz7ipLiB7Mr6XNAVPgiv6IgB++r0JtUdJ+hHjToBOrWyPiYdFu0rKBbiQt2HGdIceZH5ecwYZbGzvQhvnXv0/EL3BOJM1Z+YlRWXV1AsmJilI+H6P2RJK0iVLxJVg+d1VmVt1fmBT5IyEUezXkt9YBHScfczW1tZkd25hz8zklb/PMwpqlXE9UAx7qzKChMVyxiIxZk/F0oScb2wuOTNYxiVZSemfyopLJbppCo+Tn3cO6Tj5kqWVtYaFc/G9XS3hCQRtzuqyqosYf0ReUmd+nOhlI/js79aCiSxKasM6aifxcVCrGN96uNmsv2LWUxZN9qpqXIo6XRNxDWL6InejMoKFxZKJZhFN5oa8JBFTAkVIrCSPWzKIubA6SUwFtJ0/OupD9tHOOysZGFlhambkrCacLq7HuKalekfpic5srI+ERaKTxLUohO/GmAsaTipdpHJVfqyKYu0+ispl8BYiEP8qcdtSO+oEyysLLUzYkjpWK6GCeQmoZIjjMoqLe4SX4JbdKKOEcpaTKj8tMhKirApi7QvzwGRsVQkhVIv5VEFSUfVtbCyNql7KsqQaGYvj7EzKeuSwEu8Hm7Rh/VGGEsiZTcXuyjlHJOySPMKxokMxRZBqOWDlEc1ZPvAZbEXQ3Xp7yqY288LMylrgcBLPA5y0YXEsoYoi7QOWeyMsG9YlGWP138UWCLv8zUp5UE99P8QoMfwuyq5tzS3o9djUta7Ai9xe9hFF742xFgZSdWLzd78AYuyiB8vcwiNZRihllSZyEcTDppibWWlflRkpI+5Hb0Lk7LKCbzEJWAXPXhYwBBllSJUHy12fsUrLMqqSRoFFttkUkb3VGl+SOuzu1pcWYkqpvJNMrenf8yirHiBHy8lezT8ogNjDDGWVJvpO45mcrIoqznhmO1iYyFtZJdq+gJpF+YaFleWHFOLu8aF5vb0GSzKOiP0Gu+GX8RzLaMxyiI9cqwWXE80g7I6G/OK7EmYlnM35UGkmWT+VleWfKeUqGlZBvEti7LEphOfAsGIJ8gYY0ldDPlgKEmnGZTV34gPho8hzRBKmf6AsIVNkmR5ZcmXeJfs/GxuV9/Aoqwwode4AwQjnEN2g5T1HiGAUMH17GNQFmndiOj8VH8S6kmZLYIw2/C2EyhLPsq5u/gxc/v6LhZlTRV6jYvCMMKpbZCxiF1EtCa2Migr1KAnTlK+pOzKyrrkDMqSt3q6nLIE/4RGQDF6vt67hLLWWkhZuwj1BKQ45pbjQ845hbLk77m+9/5hbmc/zNIfR4q9yGvgGLHczw1lmawsQrLd086hLPkznhrPO4GyBPfHwZCMWD6UXE5Zmwj1lDRBWQcI9RRwohfD2wp/H+A8L4bbTOiPNSAZoYS7G6cs0rT0EYLr2cvwZEPKsdBXcCzh6offb1pDWbFDPDfQj0hs5zTKWmiCsjxjoBmR1DHOWMQUVdMF10P6SpePobuOEhwLKa9zygzJhN2T4y2hrD3FJclnn4LV2HvRAXO7e08znvq3QTMCmW+gsaTWhCCWCa6HtBGTD4M+54kNxY2w+joh5UG/EmLJab6yovs8mQHjd4Z+WGQZrS/txpCY1wxlhcAz4rjha6Sy6hKi2C+2miyEah6lPKgV4aBNYmMhpcKKSHkQKXVXZdOVtaXg0wMLK+x1/3d+xhqXmNrfl5sytorBLIG8ZaSxiKnQ74qtpiqhmlTZi0nrHS+IjYWUCivV18BvCQe9bbKyIoOez1+ofJ/ek44zTimdY2Z3f1TcFGW5R8E0olhvqLEkX5lhkEk73Qi1HGT5Z03KJDQW0o7RqVZfTyAcNM5cZa1Ntcbx9Th6X/qZbUrpMDP7ex9zvmCbvbDShbhf0FhlSQ8IgbQSWstcQi2pVl97kLYREJu8mPQelGrfxl6EgzaaqaxbaZ/AOyu9dDFNKe1kYn+faNKkG+l9uEaPzydGQPriP0loLaRtbVIlHiFuqThMaCx/EWpJle6HlAjnnt08ZS1On+pwqEJ3YtoTvq5pvT1+oGSWsgrCNWLYYjNaWaQH5EMiK8mVxPRasINw1DaRsZDSZcmBKY8ibrBR2Sxl3Wnh6OgZCh1qEEON/mb19j2VJNOUZfYyJVch0ujXQvJOzkkiFw11JTW4XqrDSNudPhI5mEVKcSOn+v+xk+YajjBLWbscz9hYqdClWHL43zWhq8ceneEoXaJxyvoMuhFBkOHGIqcOErndKXEXJj+JZQBJ6N4ZpIyUST6pDjtCOOywtZQleSlk2Iyrr/6SHPXVD8LrhHHKqg3dCGCD8caSipOC2SmujuyPCHVcSX1cNVIsa8TFko/0jvpH6uO+IsVSzFrKkrKG0ztVVAXFKmeZ1VYzlWW/CeFo5mYuE5RF3BVMYH8lbpuyMvVxHrGkYVpx+YtHkmJZmPo40q5g8qcWU5aU/wq9W11VHG14h1R0lAsrS1oA42imqRnGkn4ihSNs/yv7KVIVQ9IcSVomI24EyZ34//1e6gNJc2zlG54WU5ZUJpLer05mU/tF4pK7CyurBYyjlZmmGEsaQvwWkEVQDa2ITX45zZHjiZ7wEhQLeQ5SidQHEjeV1nvAkV9ZUt1Yes/a661QJ9Hjb7mwsjzuwjnaCM9gjrLI25uHCKphP6mCu2knOb0q6/wxwH6SVMHltIcuJj602K2mLKldIr1vrXKj17mIVPCACyvL7M3QnJ6H5cwxlmQjDkPeFjO3gPyQtSLtoZ4PiEYR85gVKDMOZZHzSshyR8spizxz4ymzVA5myc1cWFlNYB1N9JDMYj4xpvFCRo/Ic/Y6pzt4ucw67KUK70vE87dMe6wf8cnlgpfllKW44zN9AUH2eFK5E26uqyyPW9COBsJMMxblx+ZhYT0/F8qP0mcaIG8wFyViausnxNNHp9fQdt3fmAUqy/atQgfrQi1OTpnV03WVRZ7cAZT5I6N5yqIMQwrIVFXwPs/ZM5ET3ApIOlgylufsxImtckwRyylL8txC72Fxr9NKdyeWu+Pvusp6GeJRTfRLkolQfmy6ah4po6S8dDSn/Tvy4a21xuL2C9cEk2xkwe20W05ZUuYj9D52n7Y60vchsdxa11WWdBLqUUtHM40lVaL0c63PEwPI577raEioPvn4W3k0xjKKfO4rjoZslpKP/8h6ypL8L9A72Q3aa/735HJBrqsspFNWyxTJXA6RQzukbepFDUoSOofz0GxnyQV2aZvY2IgyE2CMowKvUV6zXrGesqQSCsPJpymJ6yk/FQ8ruqyy/OMhH1VscTNZWZ30+i6Q7xr5xEklHBbpS4nlcy2xFLtDMVBeh/o8TnlkKWA9ZUk1FLa62udDfoE/QS52IburKktaBfuowcgeQRi6vUoJb7j682Y9SjnvOsdlMt2jlOmjPha/05Tzfuu4TBClyIms1lOW1EJhSuk68o8jra17fbQ0qOiHYbt2bZndOasFlfU69KNm6L2sZDrU5JYfqD2rzw7aaUn77E2glEkMVG1P6mZ9hGQHnpfVPbIofwgo3ahty4pewpVF+fL3H1+Sf7auU4pt8FDd1AZ7ns1pCStgOWXZz0FA3CS2Md9Ykg+tvyb21MNYm4kfr2iLfOM66GGsFaRivWildqp8znJ/48f/tneJ3dTeTbCypFCF7kbOzdCbVuwHlWvBc6RKehvdyWrKkgbDQNwMkqxAMDXGAWpOmY2ee66Guv+6xG5qYsl9iHbOpNLERw/aY5Z8wE9NLA1TfmD4/WXByqKsZfiPd9W1dbOqZ8ri59Oc5mOrKStbNBTEyReWMJaU4SI1ys/5PxAU+ZN6Rspsnyz03Gtj+dPjl6a3jvKFIZA+ClmK/5UwTbL2uG6CleW2nt7hEogpjrpRyx1QMcWkSvpPmD0spixzN3F0Rja5WUNZUlt6nFt5N3ZvTM/s8Yg23+tdeiz/430he/MB9XwPKPO7bfvpRdtyhpJrW7pzdBWrLMlnH/3yxbxMGtehPorK17nndXR08ATzsITFlFUiCRbi4XgWySrspEd6tQHXJ8jPFDrCBOqY6CGFT6y1eGLxnqtwE4bSSldTaMg8rhem+g4SUz2qLFZZUs7T9JBvkdLN1qKXi/uI6/fV0/HmI/+zmLKkDdAQB3/nt4yxpBIKaeKSZrPr9eUTCg0/R/9Hr5yg8HIzhV0Udc8o/WzQv4YpLZ09y+7yTI5fQg7ZxCpLKnxd4er7qRwH28/xIlz+MOEkxS2mrFfgIXbuvCRZCMVtzq92YhtF8puXqHQqpV1fJiqd4FJ7tkbl+UbpTAlVFTxzWekMixl/eNqQRtRaCFaWVOk+PeKDhEX4vtcUmho7ifGlPMM44rzyTyymLGkXTMRKTE0rGUty/00x4qNNGB4lRkUqnmeeYo9XXq+6v55yLL4TlL8HTVQ6SSPFUzycyjDSV2Mvsfwq0cqSGsXRI95IWPrUSrGtEf28lau3B1G+d+ywmrKQ6Y+VuMaStSjG8L33cAf6a1TeT5WFJZ9U7vUVYpVPs68tfWyl0BSGBv2mPElyCsOvzxz6646t8UZK6Ui7aGVRl2D9y9eEB+Z5ym2NGK6w+4XnO9QfnJtWU5Z0EDJiIvFNyWp0ZYn7xgRixmevVqsSGM4QW54hlv4ssfw9mji44t1ufSLDGR4UVQ7F6yhLLNs7E8f6CvRXeGgsLFxZ5E1InjKGcNlY0rHELmtMTr5TdLzS/oCWU1Yr2IiJrpL1mM8W+qlpTdL/exbp9kMUW/EgllBsP7CdLHxSw/QZ6kv0XM04Q/ANlliKsG3F8nBD/7Lp/pUz1Bq6X7FkHfHKkmYo1Pm+42KlHzC1NSLsLQfPWh41xhxXLms5ZUn7oSMGPrCgsSSvA8zPiH8sG9mlYcWA/NkCilVr1nvKxhvMLZ/F+HktnPWECccXj+jUoHxAvuwBxau36DttSwRzLGPZYmmcyHrCqF2zg9+oVSrAL3+xinUCRyzcF8dSqp4OyrKvULiDrRyXa8t88c4uHty2au4nK3k8c5Rr0Xvm/lgm21lPWfXgIyc1liTlvaJ7y3ewrrAtqv9mAmtZk4t+pG8ctXVQluT1s8L4G2F22zje6CMjuQ7fZT1lSVtgJCc1liRViNK55cfZp67XitE5Fo5cDHN1DSS/HsqSsio8p94u6fiVfLG+V32sBZWFJPBOayxJej1O15Zf4Zk82zZR11jOcqxqdlurYyDXJV2UJeX/m17vRccrlTz1nahUxoLKkr6FlGgkWdhYOnviWjGuWIL0vA3nuZYe0DPpaOMrnZQllVF4ZTvieG/drAd0vOzbJSsqK98/8BJl3DNQsjSB+jnrFu+O2B/o+LzHZ0/J5xfdQqmol7KkOgoD4qsdF8t2Qre2JlW1pLKkkRATkbhWksXppJezrpXjjkU3Z10sxhtK1t06hbJc0k1ZUjuFe0mYauOnm7MmSdZUFmUf8Red6Ncky9M+ziKWeEw3ffz5p4oF6T5bdQklIo+OypL6KQyjERYi+Or0bvg/N+HKyt9l2Mj3ymnu9C3gJsKrUVXJCWiqR6rG4+rSVrSP1SEWdflEPVfqEMqjupKeylJaYd6d9Ey5TRdjKS7V4lVWjZ3//f302zaNnX4l7OSIC8Ukp6DyNeFN36Q2NVjt28JjWaVypwnbFOGh3E+XJFSwsmz0j2FbiH7W4SPal8oJtziVNSpJ/qX3KzU6r5LlFT7a+nze+/BTeg77S05CwWOCmz5H/bapJU4JjmWi+u3pewl+Z76U/o1GsLIkz820AGKIFrGFCr7siSzjUXzKGiHHPP2YVeO6vFrjc1ZvCCod63wkp8H7O5Etf6hpRWXmNSJj4U5+nPqZ77rIWLY6eEEVrSwp8xFaCAHkgq2FPnfcYcpcwqWsCklJzTK0GzB8+LsFpFIP5C7aurxtBxSVhtlukjPRR9wg0ukKGjvTR+I2Iv+9pLZY8uwUFkrSGEc9QriypNwXKEHQdq8vcVxc7z9QkCnWATzKWi9//e/liomTE5o8lt1fdm23tiBeDVOR0FtyMsqK6rDzMmqOpeoZQbFM89Iaij1EkD8v13M8pkI4fKP6kItTlmtSMwFlmCHosidOYNwIMYhDWb7xcrnHyrokeS2V10gZYykbzbHxLjSVgnsNJacjw6QEAS3/u7mIWDLNErETynkhU0yqCBnoC/N1fHYPwkVfpCHi6uTlmgoJVZteFtHW88y787QknMHR/Ot68i3pibKkCf8mut0ta34qWANRPSO8mOSMVD6i+eVnlqhNhGr+oflBd5KgwUT3YQ81/xOTf8LCub6ZsdGMNL3tilLJLNp/KxImsl/3AI6HwQ7y8X8LxKw7Ji/LJklLSXkL2cl+Gap6yspMknPi9n6Epob/XFlcLB7B9zTFsrmMuFgCVmgKJXo4ZYLSVMdlymoKuDshkvnKRav9qq3z7+Ca53ne4TkiHA1TNZUv/qusqHXn5GOP/8F+lD/S/ruYAFk9eZEfZpOclqwT1M8rPSk4WXSO6eqfbo42FxtLnX3qnzq+zEs7c3mHhQ5qjHeU41heZvn60fGc+s5/so2IOKc4/DogJ+V8rKxjktvRf98Jr7DlmKUTAl095mYDyanJOVXdMveTHezCY8kzW913zKNtxP9qNFEnrbgwpUEChyMqLbSG+5Wjs25gfBPurvKN6Wwgbx/I6ehR+p98Do89Iw98oixppLxaqi8/EjAGYVsNYcl780rOTvYQ/myl25rr82iZa+RN7lh+bKhPLLVXcq+AjJysvG6poIP/2hXa3/HXOXhBLcL8Vt5RxT40v7yh4kerp4MTDXR8aC85wv+JssrL97L8przXHNN3nvAXXVhJ49wlF8DjjfU8b/k3p+i4q6zX25t4RoSvfqrjp4+CIy9y/Q8HMQ1Epx8sD8+qPVaf9GNSb/OUr/X1A5623p+rchzz63SnWk74xXE/JB96uqDEc6l8W8zakqJ3X2xjXW8guQr+vbezPVPcXdjEQ+dY8g/Yw2atiHkNdZ7Aa6szi/Gl6VhIUdaTdkizLig8v4hQc6Z9gODNNZmp8/pHbG19uOotb7Vhui1Jc7I1xDld+c/KN/v7SZL3G8flKFE7GTeIe5GNtc5PciVyvrVAIa1Qwq9j6hgzyT93YJjC22rc7pE1DInFVnnodoXvAjdWvMdlnVdS5UBelU1MoNnWp9K5muGxTG2/uqDU68980VLTbBJbSEppJIyj3MTsS2U58frFxyLdJ+57cJcXV1j/vC+5HnnaTFh3wdEjTsyRbwfX9jY0lvztJv3o0KHRB8OCa3oZGYp71d4L9zvc6+P6rmmdSvGrIfRZAotDLcWF2e735LPem6jagwXfmrqLMJ/+9tbP3hbwflZyWfIKg8Q1Cou9Kk49GhH156JmIm/miBfVWHuKS65KhlKNuodM+mrx2n8JmzNuUIdaBewmxeLzUuOewz6b/ySWNWGzxw58u0Y+syaV5K7Wtt/oWWFrnsSy6PORvVpUUv0Vy6PhqMdtmt+/tNgQywV/tXbt0jGNtQrdr847IbOXbDpw7MSlS+HH9m1cOmNoYM3s4r74dJi6cu3qGUF5TLmPc15IYcUE2yUAgBNiX/wCGmtnEdx4AJwUtx9eNGFF97HhtgPgtHiue7GM9WMA7jkATu2sJS+QsP5qjRsOgLO/Gy54UYT1aLwPbjcATo9t+othrK3Fca8BcAn6J7q+sC60w30GwFVoHePiwooc7Im7DIDrUMWl05TGzcyJWwyAS+G33WWFlfRdYdxfAFwNt8kuaqy15XBzAXBFmke4orAq4cYC4KLk3ghhAQCcB1ufBy7kq4QlZXFLAXBtCv7kMhlm5hbD7QTA9XnnhisI6+YITGsA4MUg84RYZxfWkW5euI8AvDAUXuHMvopbUgu3EIAXixqbnFVY50L8cfsAgLScI7vMDw2QchSAF5TqKxKcS1i/9c6GuwbAC0zAtPtO46uLE0rjhgHwopOl3wln8FXErJp4IQQA/Eu1BRafEX9tVl033CYAQDKZu22ybNbSU5/VxjaqAIA05Oq9J8lyuorfNaQEbg0AwCH5e298ZCFfXZ7/ZhbcFAAAhUxtv7lpBV3dXdWnJO4GAEAZW/kPf/rHTF3dWhNcBaNXAAB2PF/9ZFOUGfmvjn3VozQmMwAA+LGX/+D7UwaOyF9cNugVbPUMANBC5rofLj6l9/yH+BNLQpr54WIDAISQoXKXiesu6PHAFfP78rGBFTxwiQEAovEu03rQ3K0X48WsvzmwbGKvhoUwbAUA0Bd7nurtBk79Ydeft/hFFXVu3/KZIZ0avoQxKwCA0bj7l2/YtvugMTO/Wbt119HwSzciI2Oe6yk2MvLvS78f3bV11aLpowf1eOu1snk8cc0AeJH5P1F1zgUrT38YAAAAAElFTkSuQmCC;" vertex="1" parent="1">
          <mxGeometry x="1520" y="-170" width="712" height="183.03" as="geometry" />
        </mxCell>
        <mxCell id="g2oeOAWX-h5-nGp9rk8Z-35" value="" style="shape=singleArrow;whiteSpace=wrap;html=1;arrowWidth=0.42222222222222855;arrowSize=0.41041666666666715;rounded=0;rotation=-90;strokeColor=#000000;" vertex="1" parent="1">
          <mxGeometry x="1220" y="-335" width="160" height="50" as="geometry" />
        </mxCell>
        <mxCell id="g2oeOAWX-h5-nGp9rk8Z-37" value="" style="rounded=1;whiteSpace=wrap;html=1;fillColor=#dae8fc;strokeColor=#6c8ebf;" vertex="1" parent="1">
          <mxGeometry x="800" y="-960" width="980" height="570" as="geometry" />
        </mxCell>
        <mxCell id="g2oeOAWX-h5-nGp9rk8Z-39" value="" style="shape=partialRectangle;whiteSpace=wrap;html=1;top=0;left=0;fillColor=none;rotation=90;strokeColor=#000000;" vertex="1" parent="1">
          <mxGeometry x="1185" y="-780" width="230" height="270" as="geometry" />
        </mxCell>
        <mxCell id="g2oeOAWX-h5-nGp9rk8Z-40" value="" style="verticalLabelPosition=bottom;verticalAlign=top;html=1;shape=mxgraph.basic.rect;fillColor2=none;strokeWidth=1;size=20;indent=5;rotation=-90;fillColor=#ffcd28;gradientColor=#ffa500;strokeColor=#d79b00;" vertex="1" parent="1">
          <mxGeometry x="1115" y="-670" width="200" height="60" as="geometry" />
        </mxCell>
        <mxCell id="g2oeOAWX-h5-nGp9rk8Z-41" value="" style="verticalLabelPosition=bottom;verticalAlign=top;html=1;shape=mxgraph.basic.rect;fillColor2=none;strokeWidth=1;size=20;indent=5;rotation=-90;fillColor=#ffcd28;gradientColor=#ffa500;strokeColor=#d79b00;" vertex="1" parent="1">
          <mxGeometry x="1210" y="-645" width="150" height="60" as="geometry" />
        </mxCell>
        <mxCell id="g2oeOAWX-h5-nGp9rk8Z-42" value="" style="verticalLabelPosition=bottom;verticalAlign=top;html=1;shape=mxgraph.basic.rect;fillColor2=none;strokeWidth=1;size=20;indent=100;rotation=-90;fillColor=#ffcd28;gradientColor=#ffa500;strokeColor=#d79b00;" vertex="1" parent="1">
          <mxGeometry x="1315" y="-615" width="90" height="60" as="geometry" />
        </mxCell>
        <mxCell id="g2oeOAWX-h5-nGp9rk8Z-43" value="" style="shape=partialRectangle;whiteSpace=wrap;html=1;top=0;left=0;fillColor=none;rotation=90;strokeColor=#000000;" vertex="1" parent="1">
          <mxGeometry x="1470" y="-780" width="230" height="270" as="geometry" />
        </mxCell>
        <mxCell id="g2oeOAWX-h5-nGp9rk8Z-104" value="" style="ellipse;shape=doubleEllipse;whiteSpace=wrap;html=1;aspect=fixed;fillColor=#f8cecc;strokeColor=#b85450;" vertex="1" parent="1">
          <mxGeometry x="1495" y="-615" width="30" height="30" as="geometry" />
        </mxCell>
        <mxCell id="g2oeOAWX-h5-nGp9rk8Z-106" value="" style="ellipse;shape=doubleEllipse;whiteSpace=wrap;html=1;aspect=fixed;fillColor=#f8cecc;strokeColor=#b85450;" vertex="1" parent="1">
          <mxGeometry x="1545" y="-600" width="30" height="30" as="geometry" />
        </mxCell>
        <mxCell id="g2oeOAWX-h5-nGp9rk8Z-107" value="" style="ellipse;shape=doubleEllipse;whiteSpace=wrap;html=1;aspect=fixed;fillColor=#f8cecc;strokeColor=#b85450;" vertex="1" parent="1">
          <mxGeometry x="1535" y="-640" width="30" height="30" as="geometry" />
        </mxCell>
        <mxCell id="g2oeOAWX-h5-nGp9rk8Z-108" value="" style="ellipse;shape=doubleEllipse;whiteSpace=wrap;html=1;aspect=fixed;fillColor=#f8cecc;strokeColor=#b85450;" vertex="1" parent="1">
          <mxGeometry x="1585" y="-610" width="30" height="30" as="geometry" />
        </mxCell>
        <mxCell id="g2oeOAWX-h5-nGp9rk8Z-109" value="" style="ellipse;shape=doubleEllipse;whiteSpace=wrap;html=1;aspect=fixed;fillColor=#f8cecc;strokeColor=#b85450;" vertex="1" parent="1">
          <mxGeometry x="1585" y="-670" width="30" height="30" as="geometry" />
        </mxCell>
        <mxCell id="g2oeOAWX-h5-nGp9rk8Z-110" value="" style="ellipse;shape=doubleEllipse;whiteSpace=wrap;html=1;aspect=fixed;fillColor=#f8cecc;strokeColor=#b85450;" vertex="1" parent="1">
          <mxGeometry x="1630" y="-645" width="30" height="30" as="geometry" />
        </mxCell>
        <mxCell id="g2oeOAWX-h5-nGp9rk8Z-111" value="" style="ellipse;shape=doubleEllipse;whiteSpace=wrap;html=1;aspect=fixed;fillColor=#f8cecc;strokeColor=#b85450;" vertex="1" parent="1">
          <mxGeometry x="1605" y="-710" width="30" height="30" as="geometry" />
        </mxCell>
        <mxCell id="g2oeOAWX-h5-nGp9rk8Z-112" value="" style="ellipse;shape=doubleEllipse;whiteSpace=wrap;html=1;aspect=fixed;fillColor=#f8cecc;strokeColor=#b85450;" vertex="1" parent="1">
          <mxGeometry x="1625" y="-680" width="30" height="30" as="geometry" />
        </mxCell>
        <mxCell id="g2oeOAWX-h5-nGp9rk8Z-113" value="" style="ellipse;shape=doubleEllipse;whiteSpace=wrap;html=1;aspect=fixed;fillColor=#f8cecc;strokeColor=#b85450;" vertex="1" parent="1">
          <mxGeometry x="1505" y="-580" width="30" height="30" as="geometry" />
        </mxCell>
        <mxCell id="g2oeOAWX-h5-nGp9rk8Z-114" value="" style="ellipse;shape=doubleEllipse;whiteSpace=wrap;html=1;aspect=fixed;fillColor=#f8cecc;strokeColor=#b85450;" vertex="1" parent="1">
          <mxGeometry x="1645" y="-770" width="30" height="30" as="geometry" />
        </mxCell>
        <mxCell id="g2oeOAWX-h5-nGp9rk8Z-115" value="" style="ellipse;shape=doubleEllipse;whiteSpace=wrap;html=1;aspect=fixed;fillColor=#f8cecc;strokeColor=#b85450;" vertex="1" parent="1">
          <mxGeometry x="1655" y="-740" width="30" height="30" as="geometry" />
        </mxCell>
        <mxCell id="g2oeOAWX-h5-nGp9rk8Z-116" value="" style="ellipse;shape=doubleEllipse;whiteSpace=wrap;html=1;aspect=fixed;fillColor=#f8cecc;strokeColor=#b85450;" vertex="1" parent="1">
          <mxGeometry x="1660" y="-700" width="30" height="30" as="geometry" />
        </mxCell>
        <mxCell id="g2oeOAWX-h5-nGp9rk8Z-117" value="Table" style="shape=table;startSize=30;container=1;collapsible=0;childLayout=tableLayout;fixedRows=1;rowLines=0;fontStyle=0;strokeColor=#b85450;fontSize=29;fillColor=#f8cecc;fontColor=#000000;" vertex="1" parent="1">
          <mxGeometry x="870" y="-740" width="250" height="190" as="geometry" />
        </mxCell>
        <mxCell id="g2oeOAWX-h5-nGp9rk8Z-118" value="" style="shape=tableRow;horizontal=0;startSize=0;swimlaneHead=0;swimlaneBody=0;top=0;left=0;bottom=0;right=0;collapsible=0;dropTarget=0;fillColor=none;points=[[0,0.5],[1,0.5]];portConstraint=eastwest;strokeColor=inherit;fontSize=29;fontColor=#000000;" vertex="1" parent="g2oeOAWX-h5-nGp9rk8Z-117">
          <mxGeometry y="30" width="250" height="30" as="geometry" />
        </mxCell>
        <mxCell id="g2oeOAWX-h5-nGp9rk8Z-119" value="1" style="shape=partialRectangle;html=1;whiteSpace=wrap;connectable=0;fillColor=none;top=0;left=0;bottom=0;right=0;overflow=hidden;pointerEvents=1;strokeColor=inherit;fontSize=29;fontColor=#000000;" vertex="1" parent="g2oeOAWX-h5-nGp9rk8Z-118">
          <mxGeometry width="56" height="30" as="geometry">
            <mxRectangle width="56" height="30" as="alternateBounds" />
          </mxGeometry>
        </mxCell>
        <mxCell id="g2oeOAWX-h5-nGp9rk8Z-120" value="Value 1" style="shape=partialRectangle;html=1;whiteSpace=wrap;connectable=0;fillColor=none;top=0;left=0;bottom=0;right=0;align=left;spacingLeft=6;overflow=hidden;strokeColor=inherit;fontSize=29;fontColor=#000000;" vertex="1" parent="g2oeOAWX-h5-nGp9rk8Z-118">
          <mxGeometry x="56" width="194" height="30" as="geometry">
            <mxRectangle width="194" height="30" as="alternateBounds" />
          </mxGeometry>
        </mxCell>
        <mxCell id="g2oeOAWX-h5-nGp9rk8Z-121" value="" style="shape=tableRow;horizontal=0;startSize=0;swimlaneHead=0;swimlaneBody=0;top=0;left=0;bottom=0;right=0;collapsible=0;dropTarget=0;fillColor=none;points=[[0,0.5],[1,0.5]];portConstraint=eastwest;strokeColor=inherit;fontSize=29;fontColor=#000000;" vertex="1" parent="g2oeOAWX-h5-nGp9rk8Z-117">
          <mxGeometry y="60" width="250" height="30" as="geometry" />
        </mxCell>
        <mxCell id="g2oeOAWX-h5-nGp9rk8Z-122" value="2" style="shape=partialRectangle;html=1;whiteSpace=wrap;connectable=0;fillColor=none;top=0;left=0;bottom=0;right=0;overflow=hidden;strokeColor=inherit;fontSize=29;fontColor=#000000;" vertex="1" parent="g2oeOAWX-h5-nGp9rk8Z-121">
          <mxGeometry width="56" height="30" as="geometry">
            <mxRectangle width="56" height="30" as="alternateBounds" />
          </mxGeometry>
        </mxCell>
        <mxCell id="g2oeOAWX-h5-nGp9rk8Z-123" value="&lt;font style=&quot;font-size: 29px;&quot;&gt;Value 2&lt;/font&gt;" style="shape=partialRectangle;html=1;whiteSpace=wrap;connectable=0;fillColor=none;top=0;left=0;bottom=0;right=0;align=left;spacingLeft=6;overflow=hidden;strokeColor=inherit;fontSize=29;fontColor=#000000;" vertex="1" parent="g2oeOAWX-h5-nGp9rk8Z-121">
          <mxGeometry x="56" width="194" height="30" as="geometry">
            <mxRectangle width="194" height="30" as="alternateBounds" />
          </mxGeometry>
        </mxCell>
        <mxCell id="g2oeOAWX-h5-nGp9rk8Z-124" value="" style="shape=tableRow;horizontal=0;startSize=0;swimlaneHead=0;swimlaneBody=0;top=0;left=0;bottom=0;right=0;collapsible=0;dropTarget=0;fillColor=none;points=[[0,0.5],[1,0.5]];portConstraint=eastwest;strokeColor=inherit;fontSize=29;fontColor=#000000;" vertex="1" parent="g2oeOAWX-h5-nGp9rk8Z-117">
          <mxGeometry y="90" width="250" height="50" as="geometry" />
        </mxCell>
        <mxCell id="g2oeOAWX-h5-nGp9rk8Z-125" value="3" style="shape=partialRectangle;html=1;whiteSpace=wrap;connectable=0;fillColor=none;top=0;left=0;bottom=0;right=0;overflow=hidden;strokeColor=inherit;fontSize=29;fontColor=#000000;" vertex="1" parent="g2oeOAWX-h5-nGp9rk8Z-124">
          <mxGeometry width="56" height="50" as="geometry">
            <mxRectangle width="56" height="50" as="alternateBounds" />
          </mxGeometry>
        </mxCell>
        <mxCell id="g2oeOAWX-h5-nGp9rk8Z-126" value="Value 3" style="shape=partialRectangle;html=1;whiteSpace=wrap;connectable=0;fillColor=none;top=0;left=0;bottom=0;right=0;align=left;spacingLeft=6;overflow=hidden;strokeColor=inherit;fontSize=29;fontColor=#000000;" vertex="1" parent="g2oeOAWX-h5-nGp9rk8Z-124">
          <mxGeometry x="56" width="194" height="50" as="geometry">
            <mxRectangle width="194" height="50" as="alternateBounds" />
          </mxGeometry>
        </mxCell>
        <mxCell id="g2oeOAWX-h5-nGp9rk8Z-127" value="&lt;h1&gt;&lt;font style=&quot;font-size: 50px;&quot; color=&quot;#000000&quot;&gt;Vehicle Emission Insights Dashboard&lt;/font&gt;&lt;/h1&gt;" style="text;html=1;strokeColor=none;fillColor=none;spacing=5;spacingTop=-20;whiteSpace=wrap;overflow=hidden;rounded=0;align=center;" vertex="1" parent="1">
          <mxGeometry x="860" y="-920" width="890" height="150" as="geometry" />
        </mxCell>
        <mxCell id="g2oeOAWX-h5-nGp9rk8Z-16" value="&lt;font color=&quot;#000000&quot; style=&quot;font-size: 45px;&quot;&gt;Duck DB Instance&lt;/font&gt;" style="shape=cylinder3;whiteSpace=wrap;html=1;boundedLbl=1;backgroundOutline=1;size=15;fillColor=#e1d5e7;strokeColor=#9673a6;" vertex="1" parent="1">
          <mxGeometry x="1170" y="410" width="270" height="250" as="geometry" />
        </mxCell>
      </root>
    </mxGraphModel>
  </diagram>
</mxfile>
